<?xml version="1.0" encoding="utf-8" standalone="no"?>
<!DOCTYPE svg PUBLIC "-//W3C//DTD SVG 1.1//EN"
  "http://www.w3.org/Graphics/SVG/1.1/DTD/svg11.dtd">
<!-- Created with matplotlib (http://matplotlib.org/) -->
<svg height="329.569375pt" version="1.1" viewBox="0 0 327.800625 329.569375" width="327.800625pt" xmlns="http://www.w3.org/2000/svg" xmlns:xlink="http://www.w3.org/1999/xlink">
 <defs>
  <style type="text/css">
*{stroke-linecap:butt;stroke-linejoin:round;}
  </style>
 </defs>
 <g id="figure_1">
  <g id="patch_1">
   <path d="M 0 329.569375 
L 327.800625 329.569375 
L 327.800625 0 
L 0 0 
z
" style="fill:#ffffff;"/>
  </g>
  <g id="axes_1">
   <g id="patch_2">
    <path d="M 38.100625 228.14 
L 317.100625 228.14 
L 317.100625 10.7 
L 38.100625 10.7 
z
" style="fill:#ffffff;"/>
   </g>
   <g id="line2d_1">
    <path clip-path="url(#pa35c6d9d9d)" d="M 50.782443 180.774889 
L 51.407163 186.856463 
L 51.407163 167.835369 
L 51.407163 183.449056 
L 51.407163 176.030398 
L 51.407163 178.704565 
L 52.031883 173.399362 
L 52.448363 170.423273 
L 52.656604 164.600489 
L 53.281324 161.106819 
L 53.549061 157.539208 
L 54.739004 151.445311 
L 54.739004 154.205742 
L 55.571964 148.512353 
L 56.404924 145.061815 
L 57.654364 140.625408 
L 58.725313 136.484762 
L 60.331736 132.602906 
L 61.402685 128.965052 
L 62.652125 125.695667 
L 63.901565 122.495292 
L 66.608686 119.614093 
L 72.231167 117.975087 
L 78.894848 115.870258 
L 85.142049 114.265758 
L 91.111597 111.764118 
L 96.387011 108.992904 
L 101.662425 106.329519 
L 107.35432 103.914142 
L 112.421494 101.153712 
L 118.876935 99.41119 
L 125.124136 98.272512 
L 131.371337 97.23735 
L 137.618538 96.305705 
L 143.865739 95.270543 
L 150.11294 94.28714 
L 156.360141 93.148462 
L 162.607342 91.85451 
L 168.854543 90.5088 
L 175.518225 89.076827 
L 181.348946 87.524084 
L 187.596147 85.835785 
L 193.843348 83.728492 
L 199.812895 81.226851 
L 205.08831 78.358591 
L 210.086071 75.382502 
L 215.361485 72.686768 
L 221.053379 70.156374 
L 226.328793 67.457046 
L 231.326554 64.869142 
L 236.324315 62.119494 
L 241.322076 59.337497 
L 246.319837 56.620198 
L 251.139106 54.004567 
L 255.24441 51.379693 
L 260.063679 48.727091 
L 265.06144 45.751002 
L 270.059201 42.83961 
L 274.87847 40.066856 
L 278.805282 37.405012 
L 282.732095 34.669228 
L 287.551364 31.841018 
L 292.370633 28.754019 
L 296.297445 26.061366 
L 300.224258 23.28245 
L 304.418807 21.144349 
" style="fill:none;stroke:#1f77b4;stroke-linecap:square;stroke-width:1.5;"/>
    <defs>
     <path d="M 0 1.5 
C 0.397805 1.5 0.77937 1.341951 1.06066 1.06066 
C 1.341951 0.77937 1.5 0.397805 1.5 0 
C 1.5 -0.397805 1.341951 -0.77937 1.06066 -1.06066 
C 0.77937 -1.341951 0.397805 -1.5 0 -1.5 
C -0.397805 -1.5 -0.77937 -1.341951 -1.06066 -1.06066 
C -1.341951 -0.77937 -1.5 -0.397805 -1.5 0 
C -1.5 0.397805 -1.341951 0.77937 -1.06066 1.06066 
C -0.77937 1.341951 -0.397805 1.5 0 1.5 
z
" id="m0808a23e62" style="stroke:#1f77b4;"/>
    </defs>
    <g clip-path="url(#pa35c6d9d9d)">
     <use style="fill:#1f77b4;stroke:#1f77b4;" x="50.782443" xlink:href="#m0808a23e62" y="180.774889"/>
     <use style="fill:#1f77b4;stroke:#1f77b4;" x="51.407163" xlink:href="#m0808a23e62" y="186.856463"/>
     <use style="fill:#1f77b4;stroke:#1f77b4;" x="51.407163" xlink:href="#m0808a23e62" y="167.835369"/>
     <use style="fill:#1f77b4;stroke:#1f77b4;" x="51.407163" xlink:href="#m0808a23e62" y="183.449056"/>
     <use style="fill:#1f77b4;stroke:#1f77b4;" x="51.407163" xlink:href="#m0808a23e62" y="176.030398"/>
     <use style="fill:#1f77b4;stroke:#1f77b4;" x="51.407163" xlink:href="#m0808a23e62" y="178.704565"/>
     <use style="fill:#1f77b4;stroke:#1f77b4;" x="52.031883" xlink:href="#m0808a23e62" y="173.399362"/>
     <use style="fill:#1f77b4;stroke:#1f77b4;" x="52.448363" xlink:href="#m0808a23e62" y="170.423273"/>
     <use style="fill:#1f77b4;stroke:#1f77b4;" x="52.656604" xlink:href="#m0808a23e62" y="164.600489"/>
     <use style="fill:#1f77b4;stroke:#1f77b4;" x="53.281324" xlink:href="#m0808a23e62" y="161.106819"/>
     <use style="fill:#1f77b4;stroke:#1f77b4;" x="53.549061" xlink:href="#m0808a23e62" y="157.539208"/>
     <use style="fill:#1f77b4;stroke:#1f77b4;" x="54.739004" xlink:href="#m0808a23e62" y="151.445311"/>
     <use style="fill:#1f77b4;stroke:#1f77b4;" x="54.739004" xlink:href="#m0808a23e62" y="154.205742"/>
     <use style="fill:#1f77b4;stroke:#1f77b4;" x="55.571964" xlink:href="#m0808a23e62" y="148.512353"/>
     <use style="fill:#1f77b4;stroke:#1f77b4;" x="56.404924" xlink:href="#m0808a23e62" y="145.061815"/>
     <use style="fill:#1f77b4;stroke:#1f77b4;" x="57.654364" xlink:href="#m0808a23e62" y="140.625408"/>
     <use style="fill:#1f77b4;stroke:#1f77b4;" x="58.725313" xlink:href="#m0808a23e62" y="136.484762"/>
     <use style="fill:#1f77b4;stroke:#1f77b4;" x="60.331736" xlink:href="#m0808a23e62" y="132.602906"/>
     <use style="fill:#1f77b4;stroke:#1f77b4;" x="61.402685" xlink:href="#m0808a23e62" y="128.965052"/>
     <use style="fill:#1f77b4;stroke:#1f77b4;" x="62.652125" xlink:href="#m0808a23e62" y="125.695667"/>
     <use style="fill:#1f77b4;stroke:#1f77b4;" x="63.901565" xlink:href="#m0808a23e62" y="122.495292"/>
     <use style="fill:#1f77b4;stroke:#1f77b4;" x="66.608686" xlink:href="#m0808a23e62" y="119.614093"/>
     <use style="fill:#1f77b4;stroke:#1f77b4;" x="72.231167" xlink:href="#m0808a23e62" y="117.975087"/>
     <use style="fill:#1f77b4;stroke:#1f77b4;" x="78.894848" xlink:href="#m0808a23e62" y="115.870258"/>
     <use style="fill:#1f77b4;stroke:#1f77b4;" x="85.142049" xlink:href="#m0808a23e62" y="114.265758"/>
     <use style="fill:#1f77b4;stroke:#1f77b4;" x="91.111597" xlink:href="#m0808a23e62" y="111.764118"/>
     <use style="fill:#1f77b4;stroke:#1f77b4;" x="96.387011" xlink:href="#m0808a23e62" y="108.992904"/>
     <use style="fill:#1f77b4;stroke:#1f77b4;" x="101.662425" xlink:href="#m0808a23e62" y="106.329519"/>
     <use style="fill:#1f77b4;stroke:#1f77b4;" x="107.35432" xlink:href="#m0808a23e62" y="103.914142"/>
     <use style="fill:#1f77b4;stroke:#1f77b4;" x="112.421494" xlink:href="#m0808a23e62" y="101.153712"/>
     <use style="fill:#1f77b4;stroke:#1f77b4;" x="118.876935" xlink:href="#m0808a23e62" y="99.41119"/>
     <use style="fill:#1f77b4;stroke:#1f77b4;" x="125.124136" xlink:href="#m0808a23e62" y="98.272512"/>
     <use style="fill:#1f77b4;stroke:#1f77b4;" x="131.371337" xlink:href="#m0808a23e62" y="97.23735"/>
     <use style="fill:#1f77b4;stroke:#1f77b4;" x="137.618538" xlink:href="#m0808a23e62" y="96.305705"/>
     <use style="fill:#1f77b4;stroke:#1f77b4;" x="143.865739" xlink:href="#m0808a23e62" y="95.270543"/>
     <use style="fill:#1f77b4;stroke:#1f77b4;" x="150.11294" xlink:href="#m0808a23e62" y="94.28714"/>
     <use style="fill:#1f77b4;stroke:#1f77b4;" x="156.360141" xlink:href="#m0808a23e62" y="93.148462"/>
     <use style="fill:#1f77b4;stroke:#1f77b4;" x="162.607342" xlink:href="#m0808a23e62" y="91.85451"/>
     <use style="fill:#1f77b4;stroke:#1f77b4;" x="168.854543" xlink:href="#m0808a23e62" y="90.5088"/>
     <use style="fill:#1f77b4;stroke:#1f77b4;" x="175.518225" xlink:href="#m0808a23e62" y="89.076827"/>
     <use style="fill:#1f77b4;stroke:#1f77b4;" x="181.348946" xlink:href="#m0808a23e62" y="87.524084"/>
     <use style="fill:#1f77b4;stroke:#1f77b4;" x="187.596147" xlink:href="#m0808a23e62" y="85.835785"/>
     <use style="fill:#1f77b4;stroke:#1f77b4;" x="193.843348" xlink:href="#m0808a23e62" y="83.728492"/>
     <use style="fill:#1f77b4;stroke:#1f77b4;" x="199.812895" xlink:href="#m0808a23e62" y="81.226851"/>
     <use style="fill:#1f77b4;stroke:#1f77b4;" x="205.08831" xlink:href="#m0808a23e62" y="78.358591"/>
     <use style="fill:#1f77b4;stroke:#1f77b4;" x="210.086071" xlink:href="#m0808a23e62" y="75.382502"/>
     <use style="fill:#1f77b4;stroke:#1f77b4;" x="215.361485" xlink:href="#m0808a23e62" y="72.686768"/>
     <use style="fill:#1f77b4;stroke:#1f77b4;" x="221.053379" xlink:href="#m0808a23e62" y="70.156374"/>
     <use style="fill:#1f77b4;stroke:#1f77b4;" x="226.328793" xlink:href="#m0808a23e62" y="67.457046"/>
     <use style="fill:#1f77b4;stroke:#1f77b4;" x="231.326554" xlink:href="#m0808a23e62" y="64.869142"/>
     <use style="fill:#1f77b4;stroke:#1f77b4;" x="236.324315" xlink:href="#m0808a23e62" y="62.119494"/>
     <use style="fill:#1f77b4;stroke:#1f77b4;" x="241.322076" xlink:href="#m0808a23e62" y="59.337497"/>
     <use style="fill:#1f77b4;stroke:#1f77b4;" x="246.319837" xlink:href="#m0808a23e62" y="56.620198"/>
     <use style="fill:#1f77b4;stroke:#1f77b4;" x="251.139106" xlink:href="#m0808a23e62" y="54.004567"/>
     <use style="fill:#1f77b4;stroke:#1f77b4;" x="255.24441" xlink:href="#m0808a23e62" y="51.379693"/>
     <use style="fill:#1f77b4;stroke:#1f77b4;" x="260.063679" xlink:href="#m0808a23e62" y="48.727091"/>
     <use style="fill:#1f77b4;stroke:#1f77b4;" x="265.06144" xlink:href="#m0808a23e62" y="45.751002"/>
     <use style="fill:#1f77b4;stroke:#1f77b4;" x="270.059201" xlink:href="#m0808a23e62" y="42.83961"/>
     <use style="fill:#1f77b4;stroke:#1f77b4;" x="274.87847" xlink:href="#m0808a23e62" y="40.066856"/>
     <use style="fill:#1f77b4;stroke:#1f77b4;" x="278.805282" xlink:href="#m0808a23e62" y="37.405012"/>
     <use style="fill:#1f77b4;stroke:#1f77b4;" x="282.732095" xlink:href="#m0808a23e62" y="34.669228"/>
     <use style="fill:#1f77b4;stroke:#1f77b4;" x="287.551364" xlink:href="#m0808a23e62" y="31.841018"/>
     <use style="fill:#1f77b4;stroke:#1f77b4;" x="292.370633" xlink:href="#m0808a23e62" y="28.754019"/>
     <use style="fill:#1f77b4;stroke:#1f77b4;" x="296.297445" xlink:href="#m0808a23e62" y="26.061366"/>
     <use style="fill:#1f77b4;stroke:#1f77b4;" x="300.224258" xlink:href="#m0808a23e62" y="23.28245"/>
     <use style="fill:#1f77b4;stroke:#1f77b4;" x="304.418807" xlink:href="#m0808a23e62" y="21.144349"/>
    </g>
   </g>
   <g id="line2d_2">
    <path clip-path="url(#pa35c6d9d9d)" d="M 50.782443 158.260125 
L 50.782443 155.672221 
L 50.782443 153.084317 
L 50.782443 160.783331 
L 50.782443 147.908509 
L 50.782443 150.496413 
L 51.198923 218.256364 
L 52.031883 164.384831 
L 53.281324 144.652063 
L 54.530764 134.386711 
L 54.530764 138.333264 
L 54.530764 140.921168 
L 55.780204 130.698948 
L 56.315678 126.909517 
L 57.029644 117.630033 
L 58.279084 123.388119 
L 59.885508 119.922177 
L 62.027405 114.718641 
L 67.025166 111.108515 
L 74.521807 108.701765 
L 82.018449 105.898202 
L 89.872073 103.359592 
L 95.345811 100.032287 
L 102.009492 97.573778 
L 108.078202 94.486778 
L 119.814015 92.268575 
L 133.067006 89.902491 
L 144.490459 87.869138 
L 156.984861 85.281234 
L 168.923957 82.549558 
L 179.474785 79.393753 
L 189.113324 76.11266 
L 197.680914 72.822325 
L 204.46359 70.185128 
L 209.877831 67.554092 
L 214.875591 64.966188 
L 219.873352 62.378285 
L 224.871113 59.660985 
L 229.868874 56.943686 
L 234.866635 54.096992 
L 239.864396 51.250298 
L 244.862157 48.360472 
L 249.859917 45.254987 
L 254.857678 42.408293 
L 259.855439 39.475335 
L 264.8532 36.456114 
L 269.434481 33.471398 
L 274.015762 30.417671 
L 279.430003 26.979456 
L 284.844243 23.775385 
L 288.176084 20.971822 
" style="fill:none;stroke:#ff7f0e;stroke-linecap:square;stroke-width:1.5;"/>
    <defs>
     <path d="M 0 1.5 
C 0.397805 1.5 0.77937 1.341951 1.06066 1.06066 
C 1.341951 0.77937 1.5 0.397805 1.5 0 
C 1.5 -0.397805 1.341951 -0.77937 1.06066 -1.06066 
C 0.77937 -1.341951 0.397805 -1.5 0 -1.5 
C -0.397805 -1.5 -0.77937 -1.341951 -1.06066 -1.06066 
C -1.341951 -0.77937 -1.5 -0.397805 -1.5 0 
C -1.5 0.397805 -1.341951 0.77937 -1.06066 1.06066 
C -0.77937 1.341951 -0.397805 1.5 0 1.5 
z
" id="m9b3b9ddaf7" style="stroke:#ff7f0e;"/>
    </defs>
    <g clip-path="url(#pa35c6d9d9d)">
     <use style="fill:#ff7f0e;stroke:#ff7f0e;" x="50.782443" xlink:href="#m9b3b9ddaf7" y="158.260125"/>
     <use style="fill:#ff7f0e;stroke:#ff7f0e;" x="50.782443" xlink:href="#m9b3b9ddaf7" y="155.672221"/>
     <use style="fill:#ff7f0e;stroke:#ff7f0e;" x="50.782443" xlink:href="#m9b3b9ddaf7" y="153.084317"/>
     <use style="fill:#ff7f0e;stroke:#ff7f0e;" x="50.782443" xlink:href="#m9b3b9ddaf7" y="160.783331"/>
     <use style="fill:#ff7f0e;stroke:#ff7f0e;" x="50.782443" xlink:href="#m9b3b9ddaf7" y="147.908509"/>
     <use style="fill:#ff7f0e;stroke:#ff7f0e;" x="50.782443" xlink:href="#m9b3b9ddaf7" y="150.496413"/>
     <use style="fill:#ff7f0e;stroke:#ff7f0e;" x="51.198923" xlink:href="#m9b3b9ddaf7" y="218.256364"/>
     <use style="fill:#ff7f0e;stroke:#ff7f0e;" x="52.031883" xlink:href="#m9b3b9ddaf7" y="164.384831"/>
     <use style="fill:#ff7f0e;stroke:#ff7f0e;" x="53.281324" xlink:href="#m9b3b9ddaf7" y="144.652063"/>
     <use style="fill:#ff7f0e;stroke:#ff7f0e;" x="54.530764" xlink:href="#m9b3b9ddaf7" y="134.386711"/>
     <use style="fill:#ff7f0e;stroke:#ff7f0e;" x="54.530764" xlink:href="#m9b3b9ddaf7" y="138.333264"/>
     <use style="fill:#ff7f0e;stroke:#ff7f0e;" x="54.530764" xlink:href="#m9b3b9ddaf7" y="140.921168"/>
     <use style="fill:#ff7f0e;stroke:#ff7f0e;" x="55.780204" xlink:href="#m9b3b9ddaf7" y="130.698948"/>
     <use style="fill:#ff7f0e;stroke:#ff7f0e;" x="56.315678" xlink:href="#m9b3b9ddaf7" y="126.909517"/>
     <use style="fill:#ff7f0e;stroke:#ff7f0e;" x="57.029644" xlink:href="#m9b3b9ddaf7" y="117.630033"/>
     <use style="fill:#ff7f0e;stroke:#ff7f0e;" x="58.279084" xlink:href="#m9b3b9ddaf7" y="123.388119"/>
     <use style="fill:#ff7f0e;stroke:#ff7f0e;" x="59.885508" xlink:href="#m9b3b9ddaf7" y="119.922177"/>
     <use style="fill:#ff7f0e;stroke:#ff7f0e;" x="62.027405" xlink:href="#m9b3b9ddaf7" y="114.718641"/>
     <use style="fill:#ff7f0e;stroke:#ff7f0e;" x="67.025166" xlink:href="#m9b3b9ddaf7" y="111.108515"/>
     <use style="fill:#ff7f0e;stroke:#ff7f0e;" x="74.521807" xlink:href="#m9b3b9ddaf7" y="108.701765"/>
     <use style="fill:#ff7f0e;stroke:#ff7f0e;" x="82.018449" xlink:href="#m9b3b9ddaf7" y="105.898202"/>
     <use style="fill:#ff7f0e;stroke:#ff7f0e;" x="89.872073" xlink:href="#m9b3b9ddaf7" y="103.359592"/>
     <use style="fill:#ff7f0e;stroke:#ff7f0e;" x="95.345811" xlink:href="#m9b3b9ddaf7" y="100.032287"/>
     <use style="fill:#ff7f0e;stroke:#ff7f0e;" x="102.009492" xlink:href="#m9b3b9ddaf7" y="97.573778"/>
     <use style="fill:#ff7f0e;stroke:#ff7f0e;" x="108.078202" xlink:href="#m9b3b9ddaf7" y="94.486778"/>
     <use style="fill:#ff7f0e;stroke:#ff7f0e;" x="119.814015" xlink:href="#m9b3b9ddaf7" y="92.268575"/>
     <use style="fill:#ff7f0e;stroke:#ff7f0e;" x="133.067006" xlink:href="#m9b3b9ddaf7" y="89.902491"/>
     <use style="fill:#ff7f0e;stroke:#ff7f0e;" x="144.490459" xlink:href="#m9b3b9ddaf7" y="87.869138"/>
     <use style="fill:#ff7f0e;stroke:#ff7f0e;" x="156.984861" xlink:href="#m9b3b9ddaf7" y="85.281234"/>
     <use style="fill:#ff7f0e;stroke:#ff7f0e;" x="168.923957" xlink:href="#m9b3b9ddaf7" y="82.549558"/>
     <use style="fill:#ff7f0e;stroke:#ff7f0e;" x="179.474785" xlink:href="#m9b3b9ddaf7" y="79.393753"/>
     <use style="fill:#ff7f0e;stroke:#ff7f0e;" x="189.113324" xlink:href="#m9b3b9ddaf7" y="76.11266"/>
     <use style="fill:#ff7f0e;stroke:#ff7f0e;" x="197.680914" xlink:href="#m9b3b9ddaf7" y="72.822325"/>
     <use style="fill:#ff7f0e;stroke:#ff7f0e;" x="204.46359" xlink:href="#m9b3b9ddaf7" y="70.185128"/>
     <use style="fill:#ff7f0e;stroke:#ff7f0e;" x="209.877831" xlink:href="#m9b3b9ddaf7" y="67.554092"/>
     <use style="fill:#ff7f0e;stroke:#ff7f0e;" x="214.875591" xlink:href="#m9b3b9ddaf7" y="64.966188"/>
     <use style="fill:#ff7f0e;stroke:#ff7f0e;" x="219.873352" xlink:href="#m9b3b9ddaf7" y="62.378285"/>
     <use style="fill:#ff7f0e;stroke:#ff7f0e;" x="224.871113" xlink:href="#m9b3b9ddaf7" y="59.660985"/>
     <use style="fill:#ff7f0e;stroke:#ff7f0e;" x="229.868874" xlink:href="#m9b3b9ddaf7" y="56.943686"/>
     <use style="fill:#ff7f0e;stroke:#ff7f0e;" x="234.866635" xlink:href="#m9b3b9ddaf7" y="54.096992"/>
     <use style="fill:#ff7f0e;stroke:#ff7f0e;" x="239.864396" xlink:href="#m9b3b9ddaf7" y="51.250298"/>
     <use style="fill:#ff7f0e;stroke:#ff7f0e;" x="244.862157" xlink:href="#m9b3b9ddaf7" y="48.360472"/>
     <use style="fill:#ff7f0e;stroke:#ff7f0e;" x="249.859917" xlink:href="#m9b3b9ddaf7" y="45.254987"/>
     <use style="fill:#ff7f0e;stroke:#ff7f0e;" x="254.857678" xlink:href="#m9b3b9ddaf7" y="42.408293"/>
     <use style="fill:#ff7f0e;stroke:#ff7f0e;" x="259.855439" xlink:href="#m9b3b9ddaf7" y="39.475335"/>
     <use style="fill:#ff7f0e;stroke:#ff7f0e;" x="264.8532" xlink:href="#m9b3b9ddaf7" y="36.456114"/>
     <use style="fill:#ff7f0e;stroke:#ff7f0e;" x="269.434481" xlink:href="#m9b3b9ddaf7" y="33.471398"/>
     <use style="fill:#ff7f0e;stroke:#ff7f0e;" x="274.015762" xlink:href="#m9b3b9ddaf7" y="30.417671"/>
     <use style="fill:#ff7f0e;stroke:#ff7f0e;" x="279.430003" xlink:href="#m9b3b9ddaf7" y="26.979456"/>
     <use style="fill:#ff7f0e;stroke:#ff7f0e;" x="284.844243" xlink:href="#m9b3b9ddaf7" y="23.775385"/>
     <use style="fill:#ff7f0e;stroke:#ff7f0e;" x="288.176084" xlink:href="#m9b3b9ddaf7" y="20.971822"/>
    </g>
   </g>
   <g id="line2d_3">
    <path clip-path="url(#pa35c6d9d9d)" d="M 50.782443 118.923985 
L 50.782443 116.336081 
L 50.782443 96.409221 
L 50.782443 109.435004 
L 50.782443 106.890232 
L 50.782443 104.172933 
L 50.782443 98.997125 
L 50.782443 101.585029 
L 53.906044 92.624412 
L 60.153245 87.092767 
L 66.400446 83.262669 
L 72.647647 80.623007 
L 78.894848 77.879829 
L 85.142049 75.084893 
L 91.38925 71.824134 
L 104.924852 68.546122 
L 117.419255 65.699428 
L 129.913657 63.025261 
L 142.408059 60.221698 
L 155.943661 57.504399 
L 166.355663 54.263357 
" style="fill:none;stroke:#2ca02c;stroke-linecap:square;stroke-width:1.5;"/>
    <defs>
     <path d="M 0 1.5 
C 0.397805 1.5 0.77937 1.341951 1.06066 1.06066 
C 1.341951 0.77937 1.5 0.397805 1.5 0 
C 1.5 -0.397805 1.341951 -0.77937 1.06066 -1.06066 
C 0.77937 -1.341951 0.397805 -1.5 0 -1.5 
C -0.397805 -1.5 -0.77937 -1.341951 -1.06066 -1.06066 
C -1.341951 -0.77937 -1.5 -0.397805 -1.5 0 
C -1.5 0.397805 -1.341951 0.77937 -1.06066 1.06066 
C -0.77937 1.341951 -0.397805 1.5 0 1.5 
z
" id="m551ed902fe" style="stroke:#2ca02c;"/>
    </defs>
    <g clip-path="url(#pa35c6d9d9d)">
     <use style="fill:#2ca02c;stroke:#2ca02c;" x="50.782443" xlink:href="#m551ed902fe" y="118.923985"/>
     <use style="fill:#2ca02c;stroke:#2ca02c;" x="50.782443" xlink:href="#m551ed902fe" y="116.336081"/>
     <use style="fill:#2ca02c;stroke:#2ca02c;" x="50.782443" xlink:href="#m551ed902fe" y="96.409221"/>
     <use style="fill:#2ca02c;stroke:#2ca02c;" x="50.782443" xlink:href="#m551ed902fe" y="109.435004"/>
     <use style="fill:#2ca02c;stroke:#2ca02c;" x="50.782443" xlink:href="#m551ed902fe" y="106.890232"/>
     <use style="fill:#2ca02c;stroke:#2ca02c;" x="50.782443" xlink:href="#m551ed902fe" y="104.172933"/>
     <use style="fill:#2ca02c;stroke:#2ca02c;" x="50.782443" xlink:href="#m551ed902fe" y="98.997125"/>
     <use style="fill:#2ca02c;stroke:#2ca02c;" x="50.782443" xlink:href="#m551ed902fe" y="101.585029"/>
     <use style="fill:#2ca02c;stroke:#2ca02c;" x="53.906044" xlink:href="#m551ed902fe" y="92.624412"/>
     <use style="fill:#2ca02c;stroke:#2ca02c;" x="60.153245" xlink:href="#m551ed902fe" y="87.092767"/>
     <use style="fill:#2ca02c;stroke:#2ca02c;" x="66.400446" xlink:href="#m551ed902fe" y="83.262669"/>
     <use style="fill:#2ca02c;stroke:#2ca02c;" x="72.647647" xlink:href="#m551ed902fe" y="80.623007"/>
     <use style="fill:#2ca02c;stroke:#2ca02c;" x="78.894848" xlink:href="#m551ed902fe" y="77.879829"/>
     <use style="fill:#2ca02c;stroke:#2ca02c;" x="85.142049" xlink:href="#m551ed902fe" y="75.084893"/>
     <use style="fill:#2ca02c;stroke:#2ca02c;" x="91.38925" xlink:href="#m551ed902fe" y="71.824134"/>
     <use style="fill:#2ca02c;stroke:#2ca02c;" x="104.924852" xlink:href="#m551ed902fe" y="68.546122"/>
     <use style="fill:#2ca02c;stroke:#2ca02c;" x="117.419255" xlink:href="#m551ed902fe" y="65.699428"/>
     <use style="fill:#2ca02c;stroke:#2ca02c;" x="129.913657" xlink:href="#m551ed902fe" y="63.025261"/>
     <use style="fill:#2ca02c;stroke:#2ca02c;" x="142.408059" xlink:href="#m551ed902fe" y="60.221698"/>
     <use style="fill:#2ca02c;stroke:#2ca02c;" x="155.943661" xlink:href="#m551ed902fe" y="57.504399"/>
     <use style="fill:#2ca02c;stroke:#2ca02c;" x="166.355663" xlink:href="#m551ed902fe" y="54.263357"/>
    </g>
   </g>
   <g id="line2d_4">
    <path clip-path="url(#pa35c6d9d9d)" d="M 50.782443 69.408757 
L 52.864844 54.938061 
L 52.864844 57.418135 
L 52.864844 66.648326 
L 52.864844 64.060422 
L 54.947244 51.724747 
L 65.359246 46.07449 
L 65.359246 48.597696 
L 71.606447 42.65476 
L 77.853648 39.34594 
L 82.315934 35.96318 
L 98.380166 32.118294 
L 109.089653 28.55438 
L 121.584055 25.707686 
L 134.078458 23.068024 
L 140.325659 20.583636 
" style="fill:none;stroke:#d62728;stroke-linecap:square;stroke-width:1.5;"/>
    <defs>
     <path d="M 0 1.5 
C 0.397805 1.5 0.77937 1.341951 1.06066 1.06066 
C 1.341951 0.77937 1.5 0.397805 1.5 0 
C 1.5 -0.397805 1.341951 -0.77937 1.06066 -1.06066 
C 0.77937 -1.341951 0.397805 -1.5 0 -1.5 
C -0.397805 -1.5 -0.77937 -1.341951 -1.06066 -1.06066 
C -1.341951 -0.77937 -1.5 -0.397805 -1.5 0 
C -1.5 0.397805 -1.341951 0.77937 -1.06066 1.06066 
C -0.77937 1.341951 -0.397805 1.5 0 1.5 
z
" id="m29ae122e8a" style="stroke:#d62728;"/>
    </defs>
    <g clip-path="url(#pa35c6d9d9d)">
     <use style="fill:#d62728;stroke:#d62728;" x="50.782443" xlink:href="#m29ae122e8a" y="69.408757"/>
     <use style="fill:#d62728;stroke:#d62728;" x="52.864844" xlink:href="#m29ae122e8a" y="54.938061"/>
     <use style="fill:#d62728;stroke:#d62728;" x="52.864844" xlink:href="#m29ae122e8a" y="57.418135"/>
     <use style="fill:#d62728;stroke:#d62728;" x="52.864844" xlink:href="#m29ae122e8a" y="66.648326"/>
     <use style="fill:#d62728;stroke:#d62728;" x="52.864844" xlink:href="#m29ae122e8a" y="64.060422"/>
     <use style="fill:#d62728;stroke:#d62728;" x="54.947244" xlink:href="#m29ae122e8a" y="51.724747"/>
     <use style="fill:#d62728;stroke:#d62728;" x="65.359246" xlink:href="#m29ae122e8a" y="46.07449"/>
     <use style="fill:#d62728;stroke:#d62728;" x="65.359246" xlink:href="#m29ae122e8a" y="48.597696"/>
     <use style="fill:#d62728;stroke:#d62728;" x="71.606447" xlink:href="#m29ae122e8a" y="42.65476"/>
     <use style="fill:#d62728;stroke:#d62728;" x="77.853648" xlink:href="#m29ae122e8a" y="39.34594"/>
     <use style="fill:#d62728;stroke:#d62728;" x="82.315934" xlink:href="#m29ae122e8a" y="35.96318"/>
     <use style="fill:#d62728;stroke:#d62728;" x="98.380166" xlink:href="#m29ae122e8a" y="32.118294"/>
     <use style="fill:#d62728;stroke:#d62728;" x="109.089653" xlink:href="#m29ae122e8a" y="28.55438"/>
     <use style="fill:#d62728;stroke:#d62728;" x="121.584055" xlink:href="#m29ae122e8a" y="25.707686"/>
     <use style="fill:#d62728;stroke:#d62728;" x="134.078458" xlink:href="#m29ae122e8a" y="23.068024"/>
     <use style="fill:#d62728;stroke:#d62728;" x="140.325659" xlink:href="#m29ae122e8a" y="20.583636"/>
    </g>
   </g>
   <g id="mpl_toolkits.axisartist.axis_artist_1">
    <defs>
     <path d="M 0 0 
L -0 3.5 
" id="md89f40a322" style="stroke:#000000;stroke-width:0.8;"/>
    </defs>
    <g>
     <use style="fill:none;stroke:#000000;stroke-width:0.8;" x="50.782443" xlink:href="#md89f40a322" y="10.7"/>
    </g>
    <g>
     <use style="fill:none;stroke:#000000;stroke-width:0.8;" x="109.426688" xlink:href="#md89f40a322" y="10.7"/>
    </g>
    <g>
     <use style="fill:none;stroke:#000000;stroke-width:0.8;" x="168.070934" xlink:href="#md89f40a322" y="10.7"/>
    </g>
    <g>
     <use style="fill:none;stroke:#000000;stroke-width:0.8;" x="226.715179" xlink:href="#md89f40a322" y="10.7"/>
    </g>
    <g>
     <use style="fill:none;stroke:#000000;stroke-width:0.8;" x="285.359424" xlink:href="#md89f40a322" y="10.7"/>
    </g>
    <g id="line2d_5">
     <path d="M 38.100625 10.7 
L 317.100625 10.7 
" style="fill:none;stroke:#000000;stroke-linecap:square;stroke-width:0.8;"/>
    </g>
   </g>
   <g id="mpl_toolkits.axisartist.axis_artist_2">
    <defs>
     <path d="M 0 0 
L 3.5 0 
" id="m5022fb396f" style="stroke:#000000;stroke-width:0.8;"/>
    </defs>
    <g>
     <use style="fill:none;stroke:#000000;stroke-width:0.8;" x="38.100625" xlink:href="#m5022fb396f" y="221.686215"/>
    </g>
    <g>
     <use style="fill:none;stroke:#000000;stroke-width:0.8;" x="38.100625" xlink:href="#m5022fb396f" y="192.807245"/>
    </g>
    <g>
     <use style="fill:none;stroke:#000000;stroke-width:0.8;" x="38.100625" xlink:href="#m5022fb396f" y="163.928275"/>
    </g>
    <g>
     <use style="fill:none;stroke:#000000;stroke-width:0.8;" x="38.100625" xlink:href="#m5022fb396f" y="135.049305"/>
    </g>
    <g>
     <use style="fill:none;stroke:#000000;stroke-width:0.8;" x="38.100625" xlink:href="#m5022fb396f" y="106.170335"/>
    </g>
    <g>
     <use style="fill:none;stroke:#000000;stroke-width:0.8;" x="38.100625" xlink:href="#m5022fb396f" y="77.291364"/>
    </g>
    <g>
     <use style="fill:none;stroke:#000000;stroke-width:0.8;" x="38.100625" xlink:href="#m5022fb396f" y="48.412394"/>
    </g>
    <g>
     <use style="fill:none;stroke:#000000;stroke-width:0.8;" x="38.100625" xlink:href="#m5022fb396f" y="19.533424"/>
    </g>
    <g id="text_1">
     <!-- 2.8 -->
     <defs>
      <path d="M 19.1875 8.296875 
L 53.609375 8.296875 
L 53.609375 0 
L 7.328125 0 
L 7.328125 8.296875 
Q 12.9375 14.109375 22.625 23.890625 
Q 32.328125 33.6875 34.8125 36.53125 
Q 39.546875 41.84375 41.421875 45.53125 
Q 43.3125 49.21875 43.3125 52.78125 
Q 43.3125 58.59375 39.234375 62.25 
Q 35.15625 65.921875 28.609375 65.921875 
Q 23.96875 65.921875 18.8125 64.3125 
Q 13.671875 62.703125 7.8125 59.421875 
L 7.8125 69.390625 
Q 13.765625 71.78125 18.9375 73 
Q 24.125 74.21875 28.421875 74.21875 
Q 39.75 74.21875 46.484375 68.546875 
Q 53.21875 62.890625 53.21875 53.421875 
Q 53.21875 48.921875 51.53125 44.890625 
Q 49.859375 40.875 45.40625 35.40625 
Q 44.1875 33.984375 37.640625 27.21875 
Q 31.109375 20.453125 19.1875 8.296875 
z
" id="DejaVuSans-32"/>
      <path d="M 10.6875 12.40625 
L 21 12.40625 
L 21 0 
L 10.6875 0 
z
" id="DejaVuSans-2e"/>
      <path d="M 31.78125 34.625 
Q 24.75 34.625 20.71875 30.859375 
Q 16.703125 27.09375 16.703125 20.515625 
Q 16.703125 13.921875 20.71875 10.15625 
Q 24.75 6.390625 31.78125 6.390625 
Q 38.8125 6.390625 42.859375 10.171875 
Q 46.921875 13.96875 46.921875 20.515625 
Q 46.921875 27.09375 42.890625 30.859375 
Q 38.875 34.625 31.78125 34.625 
z
M 21.921875 38.8125 
Q 15.578125 40.375 12.03125 44.71875 
Q 8.5 49.078125 8.5 55.328125 
Q 8.5 64.0625 14.71875 69.140625 
Q 20.953125 74.21875 31.78125 74.21875 
Q 42.671875 74.21875 48.875 69.140625 
Q 55.078125 64.0625 55.078125 55.328125 
Q 55.078125 49.078125 51.53125 44.71875 
Q 48 40.375 41.703125 38.8125 
Q 48.828125 37.15625 52.796875 32.3125 
Q 56.78125 27.484375 56.78125 20.515625 
Q 56.78125 9.90625 50.3125 4.234375 
Q 43.84375 -1.421875 31.78125 -1.421875 
Q 19.734375 -1.421875 13.25 4.234375 
Q 6.78125 9.90625 6.78125 20.515625 
Q 6.78125 27.484375 10.78125 32.3125 
Q 14.796875 37.15625 21.921875 38.8125 
z
M 18.3125 54.390625 
Q 18.3125 48.734375 21.84375 45.5625 
Q 25.390625 42.390625 31.78125 42.390625 
Q 38.140625 42.390625 41.71875 45.5625 
Q 45.3125 48.734375 45.3125 54.390625 
Q 45.3125 60.0625 41.71875 63.234375 
Q 38.140625 66.40625 31.78125 66.40625 
Q 25.390625 66.40625 21.84375 63.234375 
Q 18.3125 60.0625 18.3125 54.390625 
z
" id="DejaVuSans-38"/>
     </defs>
     <g transform="translate(21.878125 223.893715)scale(0.08 -0.08)">
      <use xlink:href="#DejaVuSans-32"/>
      <use x="63.623047" xlink:href="#DejaVuSans-2e"/>
      <use x="95.410156" xlink:href="#DejaVuSans-38"/>
     </g>
    </g>
    <g id="text_2">
     <!-- 3.0 -->
     <defs>
      <path d="M 40.578125 39.3125 
Q 47.65625 37.796875 51.625 33 
Q 55.609375 28.21875 55.609375 21.1875 
Q 55.609375 10.40625 48.1875 4.484375 
Q 40.765625 -1.421875 27.09375 -1.421875 
Q 22.515625 -1.421875 17.65625 -0.515625 
Q 12.796875 0.390625 7.625 2.203125 
L 7.625 11.71875 
Q 11.71875 9.328125 16.59375 8.109375 
Q 21.484375 6.890625 26.8125 6.890625 
Q 36.078125 6.890625 40.9375 10.546875 
Q 45.796875 14.203125 45.796875 21.1875 
Q 45.796875 27.640625 41.28125 31.265625 
Q 36.765625 34.90625 28.71875 34.90625 
L 20.21875 34.90625 
L 20.21875 43.015625 
L 29.109375 43.015625 
Q 36.375 43.015625 40.234375 45.921875 
Q 44.09375 48.828125 44.09375 54.296875 
Q 44.09375 59.90625 40.109375 62.90625 
Q 36.140625 65.921875 28.71875 65.921875 
Q 24.65625 65.921875 20.015625 65.03125 
Q 15.375 64.15625 9.8125 62.3125 
L 9.8125 71.09375 
Q 15.4375 72.65625 20.34375 73.4375 
Q 25.25 74.21875 29.59375 74.21875 
Q 40.828125 74.21875 47.359375 69.109375 
Q 53.90625 64.015625 53.90625 55.328125 
Q 53.90625 49.265625 50.4375 45.09375 
Q 46.96875 40.921875 40.578125 39.3125 
z
" id="DejaVuSans-33"/>
      <path d="M 31.78125 66.40625 
Q 24.171875 66.40625 20.328125 58.90625 
Q 16.5 51.421875 16.5 36.375 
Q 16.5 21.390625 20.328125 13.890625 
Q 24.171875 6.390625 31.78125 6.390625 
Q 39.453125 6.390625 43.28125 13.890625 
Q 47.125 21.390625 47.125 36.375 
Q 47.125 51.421875 43.28125 58.90625 
Q 39.453125 66.40625 31.78125 66.40625 
z
M 31.78125 74.21875 
Q 44.046875 74.21875 50.515625 64.515625 
Q 56.984375 54.828125 56.984375 36.375 
Q 56.984375 17.96875 50.515625 8.265625 
Q 44.046875 -1.421875 31.78125 -1.421875 
Q 19.53125 -1.421875 13.0625 8.265625 
Q 6.59375 17.96875 6.59375 36.375 
Q 6.59375 54.828125 13.0625 64.515625 
Q 19.53125 74.21875 31.78125 74.21875 
z
" id="DejaVuSans-30"/>
     </defs>
     <g transform="translate(21.878125 195.014745)scale(0.08 -0.08)">
      <use xlink:href="#DejaVuSans-33"/>
      <use x="63.623047" xlink:href="#DejaVuSans-2e"/>
      <use x="95.410156" xlink:href="#DejaVuSans-30"/>
     </g>
    </g>
    <g id="text_3">
     <!-- 3.2 -->
     <g transform="translate(21.878125 166.135775)scale(0.08 -0.08)">
      <use xlink:href="#DejaVuSans-33"/>
      <use x="63.623047" xlink:href="#DejaVuSans-2e"/>
      <use x="95.410156" xlink:href="#DejaVuSans-32"/>
     </g>
    </g>
    <g id="text_4">
     <!-- 3.4 -->
     <defs>
      <path d="M 37.796875 64.3125 
L 12.890625 25.390625 
L 37.796875 25.390625 
z
M 35.203125 72.90625 
L 47.609375 72.90625 
L 47.609375 25.390625 
L 58.015625 25.390625 
L 58.015625 17.1875 
L 47.609375 17.1875 
L 47.609375 0 
L 37.796875 0 
L 37.796875 17.1875 
L 4.890625 17.1875 
L 4.890625 26.703125 
z
" id="DejaVuSans-34"/>
     </defs>
     <g transform="translate(21.878125 137.256805)scale(0.08 -0.08)">
      <use xlink:href="#DejaVuSans-33"/>
      <use x="63.623047" xlink:href="#DejaVuSans-2e"/>
      <use x="95.410156" xlink:href="#DejaVuSans-34"/>
     </g>
    </g>
    <g id="text_5">
     <!-- 3.6 -->
     <defs>
      <path d="M 33.015625 40.375 
Q 26.375 40.375 22.484375 35.828125 
Q 18.609375 31.296875 18.609375 23.390625 
Q 18.609375 15.53125 22.484375 10.953125 
Q 26.375 6.390625 33.015625 6.390625 
Q 39.65625 6.390625 43.53125 10.953125 
Q 47.40625 15.53125 47.40625 23.390625 
Q 47.40625 31.296875 43.53125 35.828125 
Q 39.65625 40.375 33.015625 40.375 
z
M 52.59375 71.296875 
L 52.59375 62.3125 
Q 48.875 64.0625 45.09375 64.984375 
Q 41.3125 65.921875 37.59375 65.921875 
Q 27.828125 65.921875 22.671875 59.328125 
Q 17.53125 52.734375 16.796875 39.40625 
Q 19.671875 43.65625 24.015625 45.921875 
Q 28.375 48.1875 33.59375 48.1875 
Q 44.578125 48.1875 50.953125 41.515625 
Q 57.328125 34.859375 57.328125 23.390625 
Q 57.328125 12.15625 50.6875 5.359375 
Q 44.046875 -1.421875 33.015625 -1.421875 
Q 20.359375 -1.421875 13.671875 8.265625 
Q 6.984375 17.96875 6.984375 36.375 
Q 6.984375 53.65625 15.1875 63.9375 
Q 23.390625 74.21875 37.203125 74.21875 
Q 40.921875 74.21875 44.703125 73.484375 
Q 48.484375 72.75 52.59375 71.296875 
z
" id="DejaVuSans-36"/>
     </defs>
     <g transform="translate(21.878125 108.377835)scale(0.08 -0.08)">
      <use xlink:href="#DejaVuSans-33"/>
      <use x="63.623047" xlink:href="#DejaVuSans-2e"/>
      <use x="95.410156" xlink:href="#DejaVuSans-36"/>
     </g>
    </g>
    <g id="text_6">
     <!-- 3.8 -->
     <g transform="translate(21.878125 79.498864)scale(0.08 -0.08)">
      <use xlink:href="#DejaVuSans-33"/>
      <use x="63.623047" xlink:href="#DejaVuSans-2e"/>
      <use x="95.410156" xlink:href="#DejaVuSans-38"/>
     </g>
    </g>
    <g id="text_7">
     <!-- 4.0 -->
     <g transform="translate(21.878125 50.619894)scale(0.08 -0.08)">
      <use xlink:href="#DejaVuSans-34"/>
      <use x="63.623047" xlink:href="#DejaVuSans-2e"/>
      <use x="95.410156" xlink:href="#DejaVuSans-30"/>
     </g>
    </g>
    <g id="text_8">
     <!-- 4.2 -->
     <g transform="translate(21.878125 21.740924)scale(0.08 -0.08)">
      <use xlink:href="#DejaVuSans-34"/>
      <use x="63.623047" xlink:href="#DejaVuSans-2e"/>
      <use x="95.410156" xlink:href="#DejaVuSans-32"/>
     </g>
    </g>
    <g id="line2d_6">
     <path d="M 38.100625 228.14 
L 38.100625 10.7 
" style="fill:none;stroke:#000000;stroke-linecap:square;stroke-width:0.8;"/>
    </g>
    <g id="text_9">
     <!-- Potential (V) -->
     <defs>
      <path d="M 19.671875 64.796875 
L 19.671875 37.40625 
L 32.078125 37.40625 
Q 38.96875 37.40625 42.71875 40.96875 
Q 46.484375 44.53125 46.484375 51.125 
Q 46.484375 57.671875 42.71875 61.234375 
Q 38.96875 64.796875 32.078125 64.796875 
z
M 9.8125 72.90625 
L 32.078125 72.90625 
Q 44.34375 72.90625 50.609375 67.359375 
Q 56.890625 61.8125 56.890625 51.125 
Q 56.890625 40.328125 50.609375 34.8125 
Q 44.34375 29.296875 32.078125 29.296875 
L 19.671875 29.296875 
L 19.671875 0 
L 9.8125 0 
z
" id="DejaVuSans-50"/>
      <path d="M 30.609375 48.390625 
Q 23.390625 48.390625 19.1875 42.75 
Q 14.984375 37.109375 14.984375 27.296875 
Q 14.984375 17.484375 19.15625 11.84375 
Q 23.34375 6.203125 30.609375 6.203125 
Q 37.796875 6.203125 41.984375 11.859375 
Q 46.1875 17.53125 46.1875 27.296875 
Q 46.1875 37.015625 41.984375 42.703125 
Q 37.796875 48.390625 30.609375 48.390625 
z
M 30.609375 56 
Q 42.328125 56 49.015625 48.375 
Q 55.71875 40.765625 55.71875 27.296875 
Q 55.71875 13.875 49.015625 6.21875 
Q 42.328125 -1.421875 30.609375 -1.421875 
Q 18.84375 -1.421875 12.171875 6.21875 
Q 5.515625 13.875 5.515625 27.296875 
Q 5.515625 40.765625 12.171875 48.375 
Q 18.84375 56 30.609375 56 
z
" id="DejaVuSans-6f"/>
      <path d="M 18.3125 70.21875 
L 18.3125 54.6875 
L 36.8125 54.6875 
L 36.8125 47.703125 
L 18.3125 47.703125 
L 18.3125 18.015625 
Q 18.3125 11.328125 20.140625 9.421875 
Q 21.96875 7.515625 27.59375 7.515625 
L 36.8125 7.515625 
L 36.8125 0 
L 27.59375 0 
Q 17.1875 0 13.234375 3.875 
Q 9.28125 7.765625 9.28125 18.015625 
L 9.28125 47.703125 
L 2.6875 47.703125 
L 2.6875 54.6875 
L 9.28125 54.6875 
L 9.28125 70.21875 
z
" id="DejaVuSans-74"/>
      <path d="M 56.203125 29.59375 
L 56.203125 25.203125 
L 14.890625 25.203125 
Q 15.484375 15.921875 20.484375 11.0625 
Q 25.484375 6.203125 34.421875 6.203125 
Q 39.59375 6.203125 44.453125 7.46875 
Q 49.3125 8.734375 54.109375 11.28125 
L 54.109375 2.78125 
Q 49.265625 0.734375 44.1875 -0.34375 
Q 39.109375 -1.421875 33.890625 -1.421875 
Q 20.796875 -1.421875 13.15625 6.1875 
Q 5.515625 13.8125 5.515625 26.8125 
Q 5.515625 40.234375 12.765625 48.109375 
Q 20.015625 56 32.328125 56 
Q 43.359375 56 49.78125 48.890625 
Q 56.203125 41.796875 56.203125 29.59375 
z
M 47.21875 32.234375 
Q 47.125 39.59375 43.09375 43.984375 
Q 39.0625 48.390625 32.421875 48.390625 
Q 24.90625 48.390625 20.390625 44.140625 
Q 15.875 39.890625 15.1875 32.171875 
z
" id="DejaVuSans-65"/>
      <path d="M 54.890625 33.015625 
L 54.890625 0 
L 45.90625 0 
L 45.90625 32.71875 
Q 45.90625 40.484375 42.875 44.328125 
Q 39.84375 48.1875 33.796875 48.1875 
Q 26.515625 48.1875 22.3125 43.546875 
Q 18.109375 38.921875 18.109375 30.90625 
L 18.109375 0 
L 9.078125 0 
L 9.078125 54.6875 
L 18.109375 54.6875 
L 18.109375 46.1875 
Q 21.34375 51.125 25.703125 53.5625 
Q 30.078125 56 35.796875 56 
Q 45.21875 56 50.046875 50.171875 
Q 54.890625 44.34375 54.890625 33.015625 
z
" id="DejaVuSans-6e"/>
      <path d="M 9.421875 54.6875 
L 18.40625 54.6875 
L 18.40625 0 
L 9.421875 0 
z
M 9.421875 75.984375 
L 18.40625 75.984375 
L 18.40625 64.59375 
L 9.421875 64.59375 
z
" id="DejaVuSans-69"/>
      <path d="M 34.28125 27.484375 
Q 23.390625 27.484375 19.1875 25 
Q 14.984375 22.515625 14.984375 16.5 
Q 14.984375 11.71875 18.140625 8.90625 
Q 21.296875 6.109375 26.703125 6.109375 
Q 34.1875 6.109375 38.703125 11.40625 
Q 43.21875 16.703125 43.21875 25.484375 
L 43.21875 27.484375 
z
M 52.203125 31.203125 
L 52.203125 0 
L 43.21875 0 
L 43.21875 8.296875 
Q 40.140625 3.328125 35.546875 0.953125 
Q 30.953125 -1.421875 24.3125 -1.421875 
Q 15.921875 -1.421875 10.953125 3.296875 
Q 6 8.015625 6 15.921875 
Q 6 25.140625 12.171875 29.828125 
Q 18.359375 34.515625 30.609375 34.515625 
L 43.21875 34.515625 
L 43.21875 35.40625 
Q 43.21875 41.609375 39.140625 45 
Q 35.0625 48.390625 27.6875 48.390625 
Q 23 48.390625 18.546875 47.265625 
Q 14.109375 46.140625 10.015625 43.890625 
L 10.015625 52.203125 
Q 14.9375 54.109375 19.578125 55.046875 
Q 24.21875 56 28.609375 56 
Q 40.484375 56 46.34375 49.84375 
Q 52.203125 43.703125 52.203125 31.203125 
z
" id="DejaVuSans-61"/>
      <path d="M 9.421875 75.984375 
L 18.40625 75.984375 
L 18.40625 0 
L 9.421875 0 
z
" id="DejaVuSans-6c"/>
      <path id="DejaVuSans-20"/>
      <path d="M 31 75.875 
Q 24.46875 64.65625 21.28125 53.65625 
Q 18.109375 42.671875 18.109375 31.390625 
Q 18.109375 20.125 21.3125 9.0625 
Q 24.515625 -2 31 -13.1875 
L 23.1875 -13.1875 
Q 15.875 -1.703125 12.234375 9.375 
Q 8.59375 20.453125 8.59375 31.390625 
Q 8.59375 42.28125 12.203125 53.3125 
Q 15.828125 64.359375 23.1875 75.875 
z
" id="DejaVuSans-28"/>
      <path d="M 28.609375 0 
L 0.78125 72.90625 
L 11.078125 72.90625 
L 34.1875 11.53125 
L 57.328125 72.90625 
L 67.578125 72.90625 
L 39.796875 0 
z
" id="DejaVuSans-56"/>
      <path d="M 8.015625 75.875 
L 15.828125 75.875 
Q 23.140625 64.359375 26.78125 53.3125 
Q 30.421875 42.28125 30.421875 31.390625 
Q 30.421875 20.453125 26.78125 9.375 
Q 23.140625 -1.703125 15.828125 -13.1875 
L 8.015625 -13.1875 
Q 14.5 -2 17.703125 9.0625 
Q 20.90625 20.125 20.90625 31.390625 
Q 20.90625 42.671875 17.703125 53.65625 
Q 14.5 64.65625 8.015625 75.875 
z
" id="DejaVuSans-29"/>
     </defs>
     <g transform="translate(14.798438 150.410625)rotate(-90)scale(0.1 -0.1)">
      <use xlink:href="#DejaVuSans-50"/>
      <use x="60.255859" xlink:href="#DejaVuSans-6f"/>
      <use x="121.4375" xlink:href="#DejaVuSans-74"/>
      <use x="160.646484" xlink:href="#DejaVuSans-65"/>
      <use x="222.169922" xlink:href="#DejaVuSans-6e"/>
      <use x="285.548828" xlink:href="#DejaVuSans-74"/>
      <use x="324.757812" xlink:href="#DejaVuSans-69"/>
      <use x="352.541016" xlink:href="#DejaVuSans-61"/>
      <use x="413.820312" xlink:href="#DejaVuSans-6c"/>
      <use x="441.603516" xlink:href="#DejaVuSans-20"/>
      <use x="473.390625" xlink:href="#DejaVuSans-28"/>
      <use x="512.404297" xlink:href="#DejaVuSans-56"/>
      <use x="580.8125" xlink:href="#DejaVuSans-29"/>
     </g>
    </g>
   </g>
   <g id="mpl_toolkits.axisartist.axis_artist_3">
    <defs>
     <path d="M 0 0 
L 0 -3.5 
" id="m1f01b9f636" style="stroke:#000000;stroke-width:0.8;"/>
    </defs>
    <g>
     <use style="fill:none;stroke:#000000;stroke-width:0.8;" x="50.782443" xlink:href="#m1f01b9f636" y="228.14"/>
    </g>
    <g>
     <use style="fill:none;stroke:#000000;stroke-width:0.8;" x="109.426688" xlink:href="#m1f01b9f636" y="228.14"/>
    </g>
    <g>
     <use style="fill:none;stroke:#000000;stroke-width:0.8;" x="168.070934" xlink:href="#m1f01b9f636" y="228.14"/>
    </g>
    <g>
     <use style="fill:none;stroke:#000000;stroke-width:0.8;" x="226.715179" xlink:href="#m1f01b9f636" y="228.14"/>
    </g>
    <g>
     <use style="fill:none;stroke:#000000;stroke-width:0.8;" x="285.359424" xlink:href="#m1f01b9f636" y="228.14"/>
    </g>
    <g id="text_10">
     <!-- 0.0 -->
     <g transform="translate(44.421193 237.5775)scale(0.08 -0.08)">
      <use xlink:href="#DejaVuSans-30"/>
      <use x="63.623047" xlink:href="#DejaVuSans-2e"/>
      <use x="95.410156" xlink:href="#DejaVuSans-30"/>
     </g>
    </g>
    <g id="text_11">
     <!-- 0.5 -->
     <defs>
      <path d="M 10.796875 72.90625 
L 49.515625 72.90625 
L 49.515625 64.59375 
L 19.828125 64.59375 
L 19.828125 46.734375 
Q 21.96875 47.46875 24.109375 47.828125 
Q 26.265625 48.1875 28.421875 48.1875 
Q 40.625 48.1875 47.75 41.5 
Q 54.890625 34.8125 54.890625 23.390625 
Q 54.890625 11.625 47.5625 5.09375 
Q 40.234375 -1.421875 26.90625 -1.421875 
Q 22.3125 -1.421875 17.546875 -0.640625 
Q 12.796875 0.140625 7.71875 1.703125 
L 7.71875 11.625 
Q 12.109375 9.234375 16.796875 8.0625 
Q 21.484375 6.890625 26.703125 6.890625 
Q 35.15625 6.890625 40.078125 11.328125 
Q 45.015625 15.765625 45.015625 23.390625 
Q 45.015625 31 40.078125 35.4375 
Q 35.15625 39.890625 26.703125 39.890625 
Q 22.75 39.890625 18.8125 39.015625 
Q 14.890625 38.140625 10.796875 36.28125 
z
" id="DejaVuSans-35"/>
     </defs>
     <g transform="translate(103.065438 237.5775)scale(0.08 -0.08)">
      <use xlink:href="#DejaVuSans-30"/>
      <use x="63.623047" xlink:href="#DejaVuSans-2e"/>
      <use x="95.410156" xlink:href="#DejaVuSans-35"/>
     </g>
    </g>
    <g id="text_12">
     <!-- 1.0 -->
     <defs>
      <path d="M 12.40625 8.296875 
L 28.515625 8.296875 
L 28.515625 63.921875 
L 10.984375 60.40625 
L 10.984375 69.390625 
L 28.421875 72.90625 
L 38.28125 72.90625 
L 38.28125 8.296875 
L 54.390625 8.296875 
L 54.390625 0 
L 12.40625 0 
z
" id="DejaVuSans-31"/>
     </defs>
     <g transform="translate(161.709684 237.5775)scale(0.08 -0.08)">
      <use xlink:href="#DejaVuSans-31"/>
      <use x="63.623047" xlink:href="#DejaVuSans-2e"/>
      <use x="95.410156" xlink:href="#DejaVuSans-30"/>
     </g>
    </g>
    <g id="text_13">
     <!-- 1.5 -->
     <g transform="translate(220.353929 237.5775)scale(0.08 -0.08)">
      <use xlink:href="#DejaVuSans-31"/>
      <use x="63.623047" xlink:href="#DejaVuSans-2e"/>
      <use x="95.410156" xlink:href="#DejaVuSans-35"/>
     </g>
    </g>
    <g id="text_14">
     <!-- 2.0 -->
     <g transform="translate(278.998174 237.5775)scale(0.08 -0.08)">
      <use xlink:href="#DejaVuSans-32"/>
      <use x="63.623047" xlink:href="#DejaVuSans-2e"/>
      <use x="95.410156" xlink:href="#DejaVuSans-30"/>
     </g>
    </g>
    <g id="line2d_7">
     <path d="M 38.100625 228.14 
L 317.100625 228.14 
" style="fill:none;stroke:#000000;stroke-linecap:square;stroke-width:0.8;"/>
    </g>
    <g id="text_15">
     <!-- Capacity (Ah) -->
     <defs>
      <path d="M 64.40625 67.28125 
L 64.40625 56.890625 
Q 59.421875 61.53125 53.78125 63.8125 
Q 48.140625 66.109375 41.796875 66.109375 
Q 29.296875 66.109375 22.65625 58.46875 
Q 16.015625 50.828125 16.015625 36.375 
Q 16.015625 21.96875 22.65625 14.328125 
Q 29.296875 6.6875 41.796875 6.6875 
Q 48.140625 6.6875 53.78125 8.984375 
Q 59.421875 11.28125 64.40625 15.921875 
L 64.40625 5.609375 
Q 59.234375 2.09375 53.4375 0.328125 
Q 47.65625 -1.421875 41.21875 -1.421875 
Q 24.65625 -1.421875 15.125 8.703125 
Q 5.609375 18.84375 5.609375 36.375 
Q 5.609375 53.953125 15.125 64.078125 
Q 24.65625 74.21875 41.21875 74.21875 
Q 47.75 74.21875 53.53125 72.484375 
Q 59.328125 70.75 64.40625 67.28125 
z
" id="DejaVuSans-43"/>
      <path d="M 18.109375 8.203125 
L 18.109375 -20.796875 
L 9.078125 -20.796875 
L 9.078125 54.6875 
L 18.109375 54.6875 
L 18.109375 46.390625 
Q 20.953125 51.265625 25.265625 53.625 
Q 29.59375 56 35.59375 56 
Q 45.5625 56 51.78125 48.09375 
Q 58.015625 40.1875 58.015625 27.296875 
Q 58.015625 14.40625 51.78125 6.484375 
Q 45.5625 -1.421875 35.59375 -1.421875 
Q 29.59375 -1.421875 25.265625 0.953125 
Q 20.953125 3.328125 18.109375 8.203125 
z
M 48.6875 27.296875 
Q 48.6875 37.203125 44.609375 42.84375 
Q 40.53125 48.484375 33.40625 48.484375 
Q 26.265625 48.484375 22.1875 42.84375 
Q 18.109375 37.203125 18.109375 27.296875 
Q 18.109375 17.390625 22.1875 11.75 
Q 26.265625 6.109375 33.40625 6.109375 
Q 40.53125 6.109375 44.609375 11.75 
Q 48.6875 17.390625 48.6875 27.296875 
z
" id="DejaVuSans-70"/>
      <path d="M 48.78125 52.59375 
L 48.78125 44.1875 
Q 44.96875 46.296875 41.140625 47.34375 
Q 37.3125 48.390625 33.40625 48.390625 
Q 24.65625 48.390625 19.8125 42.84375 
Q 14.984375 37.3125 14.984375 27.296875 
Q 14.984375 17.28125 19.8125 11.734375 
Q 24.65625 6.203125 33.40625 6.203125 
Q 37.3125 6.203125 41.140625 7.25 
Q 44.96875 8.296875 48.78125 10.40625 
L 48.78125 2.09375 
Q 45.015625 0.34375 40.984375 -0.53125 
Q 36.96875 -1.421875 32.421875 -1.421875 
Q 20.0625 -1.421875 12.78125 6.34375 
Q 5.515625 14.109375 5.515625 27.296875 
Q 5.515625 40.671875 12.859375 48.328125 
Q 20.21875 56 33.015625 56 
Q 37.15625 56 41.109375 55.140625 
Q 45.0625 54.296875 48.78125 52.59375 
z
" id="DejaVuSans-63"/>
      <path d="M 32.171875 -5.078125 
Q 28.375 -14.84375 24.75 -17.8125 
Q 21.140625 -20.796875 15.09375 -20.796875 
L 7.90625 -20.796875 
L 7.90625 -13.28125 
L 13.1875 -13.28125 
Q 16.890625 -13.28125 18.9375 -11.515625 
Q 21 -9.765625 23.484375 -3.21875 
L 25.09375 0.875 
L 2.984375 54.6875 
L 12.5 54.6875 
L 29.59375 11.921875 
L 46.6875 54.6875 
L 56.203125 54.6875 
z
" id="DejaVuSans-79"/>
      <path d="M 34.1875 63.1875 
L 20.796875 26.90625 
L 47.609375 26.90625 
z
M 28.609375 72.90625 
L 39.796875 72.90625 
L 67.578125 0 
L 57.328125 0 
L 50.6875 18.703125 
L 17.828125 18.703125 
L 11.1875 0 
L 0.78125 0 
z
" id="DejaVuSans-41"/>
      <path d="M 54.890625 33.015625 
L 54.890625 0 
L 45.90625 0 
L 45.90625 32.71875 
Q 45.90625 40.484375 42.875 44.328125 
Q 39.84375 48.1875 33.796875 48.1875 
Q 26.515625 48.1875 22.3125 43.546875 
Q 18.109375 38.921875 18.109375 30.90625 
L 18.109375 0 
L 9.078125 0 
L 9.078125 75.984375 
L 18.109375 75.984375 
L 18.109375 46.1875 
Q 21.34375 51.125 25.703125 53.5625 
Q 30.078125 56 35.796875 56 
Q 45.21875 56 50.046875 50.171875 
Q 54.890625 44.34375 54.890625 33.015625 
z
" id="DejaVuSans-68"/>
     </defs>
     <g transform="translate(143.669375 250.289687)scale(0.1 -0.1)">
      <use xlink:href="#DejaVuSans-43"/>
      <use x="69.824219" xlink:href="#DejaVuSans-61"/>
      <use x="131.103516" xlink:href="#DejaVuSans-70"/>
      <use x="194.580078" xlink:href="#DejaVuSans-61"/>
      <use x="255.859375" xlink:href="#DejaVuSans-63"/>
      <use x="310.839844" xlink:href="#DejaVuSans-69"/>
      <use x="338.623047" xlink:href="#DejaVuSans-74"/>
      <use x="377.832031" xlink:href="#DejaVuSans-79"/>
      <use x="437.011719" xlink:href="#DejaVuSans-20"/>
      <use x="468.798828" xlink:href="#DejaVuSans-28"/>
      <use x="507.8125" xlink:href="#DejaVuSans-41"/>
      <use x="576.220703" xlink:href="#DejaVuSans-68"/>
      <use x="639.599609" xlink:href="#DejaVuSans-29"/>
     </g>
    </g>
   </g>
   <g id="mpl_toolkits.axisartist.axis_artist_4">
    <defs>
     <path d="M 0 0 
L -3.5 -0 
" id="m58d6bd7090" style="stroke:#000000;stroke-width:0.8;"/>
    </defs>
    <g>
     <use style="fill:none;stroke:#000000;stroke-width:0.8;" x="317.100625" xlink:href="#m58d6bd7090" y="221.686215"/>
    </g>
    <g>
     <use style="fill:none;stroke:#000000;stroke-width:0.8;" x="317.100625" xlink:href="#m58d6bd7090" y="192.807245"/>
    </g>
    <g>
     <use style="fill:none;stroke:#000000;stroke-width:0.8;" x="317.100625" xlink:href="#m58d6bd7090" y="163.928275"/>
    </g>
    <g>
     <use style="fill:none;stroke:#000000;stroke-width:0.8;" x="317.100625" xlink:href="#m58d6bd7090" y="135.049305"/>
    </g>
    <g>
     <use style="fill:none;stroke:#000000;stroke-width:0.8;" x="317.100625" xlink:href="#m58d6bd7090" y="106.170335"/>
    </g>
    <g>
     <use style="fill:none;stroke:#000000;stroke-width:0.8;" x="317.100625" xlink:href="#m58d6bd7090" y="77.291364"/>
    </g>
    <g>
     <use style="fill:none;stroke:#000000;stroke-width:0.8;" x="317.100625" xlink:href="#m58d6bd7090" y="48.412394"/>
    </g>
    <g>
     <use style="fill:none;stroke:#000000;stroke-width:0.8;" x="317.100625" xlink:href="#m58d6bd7090" y="19.533424"/>
    </g>
    <g id="line2d_8">
     <path d="M 317.100625 228.14 
L 317.100625 10.7 
" style="fill:none;stroke:#000000;stroke-linecap:square;stroke-width:0.8;"/>
    </g>
   </g>
   <g id="mpl_toolkits.axisartist.axis_artist_5">
    <g>
     <use style="fill:none;stroke:#000000;stroke-width:0.8;" x="50.782443" xlink:href="#m1f01b9f636" y="263.14"/>
    </g>
    <g>
     <use style="fill:none;stroke:#000000;stroke-width:0.8;" x="102.389379" xlink:href="#m1f01b9f636" y="263.14"/>
    </g>
    <g>
     <use style="fill:none;stroke:#000000;stroke-width:0.8;" x="153.996315" xlink:href="#m1f01b9f636" y="263.14"/>
    </g>
    <g>
     <use style="fill:none;stroke:#000000;stroke-width:0.8;" x="205.60325" xlink:href="#m1f01b9f636" y="263.14"/>
    </g>
    <g>
     <use style="fill:none;stroke:#000000;stroke-width:0.8;" x="257.210186" xlink:href="#m1f01b9f636" y="263.14"/>
    </g>
    <g>
     <use style="fill:none;stroke:#000000;stroke-width:0.8;" x="308.817122" xlink:href="#m1f01b9f636" y="263.14"/>
    </g>
    <g id="text_16">
     <!-- 0 -->
     <g transform="translate(48.237443 272.5775)scale(0.08 -0.08)">
      <use xlink:href="#DejaVuSans-30"/>
     </g>
    </g>
    <g id="text_17">
     <!-- 20 -->
     <g transform="translate(97.299379 272.5775)scale(0.08 -0.08)">
      <use xlink:href="#DejaVuSans-32"/>
      <use x="63.623047" xlink:href="#DejaVuSans-30"/>
     </g>
    </g>
    <g id="text_18">
     <!-- 40 -->
     <g transform="translate(148.906315 272.5775)scale(0.08 -0.08)">
      <use xlink:href="#DejaVuSans-34"/>
      <use x="63.623047" xlink:href="#DejaVuSans-30"/>
     </g>
    </g>
    <g id="text_19">
     <!-- 60 -->
     <g transform="translate(200.51325 272.5775)scale(0.08 -0.08)">
      <use xlink:href="#DejaVuSans-36"/>
      <use x="63.623047" xlink:href="#DejaVuSans-30"/>
     </g>
    </g>
    <g id="text_20">
     <!-- 80 -->
     <g transform="translate(252.120186 272.5775)scale(0.08 -0.08)">
      <use xlink:href="#DejaVuSans-38"/>
      <use x="63.623047" xlink:href="#DejaVuSans-30"/>
     </g>
    </g>
    <g id="text_21">
     <!-- 100 -->
     <g transform="translate(301.182122 272.5775)scale(0.08 -0.08)">
      <use xlink:href="#DejaVuSans-31"/>
      <use x="63.623047" xlink:href="#DejaVuSans-30"/>
      <use x="127.246094" xlink:href="#DejaVuSans-30"/>
     </g>
    </g>
    <g id="line2d_9">
     <path d="M 38.100625 263.14 
L 317.100625 263.14 
" style="fill:none;stroke:#000000;stroke-linecap:square;stroke-width:0.8;"/>
    </g>
    <g id="text_22">
     <!-- Capacity w.r.t nominal (%) -->
     <defs>
      <path d="M 4.203125 54.6875 
L 13.1875 54.6875 
L 24.421875 12.015625 
L 35.59375 54.6875 
L 46.1875 54.6875 
L 57.421875 12.015625 
L 68.609375 54.6875 
L 77.59375 54.6875 
L 63.28125 0 
L 52.6875 0 
L 40.921875 44.828125 
L 29.109375 0 
L 18.5 0 
z
" id="DejaVuSans-77"/>
      <path d="M 41.109375 46.296875 
Q 39.59375 47.171875 37.8125 47.578125 
Q 36.03125 48 33.890625 48 
Q 26.265625 48 22.1875 43.046875 
Q 18.109375 38.09375 18.109375 28.8125 
L 18.109375 0 
L 9.078125 0 
L 9.078125 54.6875 
L 18.109375 54.6875 
L 18.109375 46.1875 
Q 20.953125 51.171875 25.484375 53.578125 
Q 30.03125 56 36.53125 56 
Q 37.453125 56 38.578125 55.875 
Q 39.703125 55.765625 41.0625 55.515625 
z
" id="DejaVuSans-72"/>
      <path d="M 52 44.1875 
Q 55.375 50.25 60.0625 53.125 
Q 64.75 56 71.09375 56 
Q 79.640625 56 84.28125 50.015625 
Q 88.921875 44.046875 88.921875 33.015625 
L 88.921875 0 
L 79.890625 0 
L 79.890625 32.71875 
Q 79.890625 40.578125 77.09375 44.375 
Q 74.3125 48.1875 68.609375 48.1875 
Q 61.625 48.1875 57.5625 43.546875 
Q 53.515625 38.921875 53.515625 30.90625 
L 53.515625 0 
L 44.484375 0 
L 44.484375 32.71875 
Q 44.484375 40.625 41.703125 44.40625 
Q 38.921875 48.1875 33.109375 48.1875 
Q 26.21875 48.1875 22.15625 43.53125 
Q 18.109375 38.875 18.109375 30.90625 
L 18.109375 0 
L 9.078125 0 
L 9.078125 54.6875 
L 18.109375 54.6875 
L 18.109375 46.1875 
Q 21.1875 51.21875 25.484375 53.609375 
Q 29.78125 56 35.6875 56 
Q 41.65625 56 45.828125 52.96875 
Q 50 49.953125 52 44.1875 
z
" id="DejaVuSans-6d"/>
      <path d="M 72.703125 32.078125 
Q 68.453125 32.078125 66.03125 28.46875 
Q 63.625 24.859375 63.625 18.40625 
Q 63.625 12.0625 66.03125 8.421875 
Q 68.453125 4.78125 72.703125 4.78125 
Q 76.859375 4.78125 79.265625 8.421875 
Q 81.6875 12.0625 81.6875 18.40625 
Q 81.6875 24.8125 79.265625 28.4375 
Q 76.859375 32.078125 72.703125 32.078125 
z
M 72.703125 38.28125 
Q 80.421875 38.28125 84.953125 32.90625 
Q 89.5 27.546875 89.5 18.40625 
Q 89.5 9.28125 84.9375 3.921875 
Q 80.375 -1.421875 72.703125 -1.421875 
Q 64.890625 -1.421875 60.34375 3.921875 
Q 55.8125 9.28125 55.8125 18.40625 
Q 55.8125 27.59375 60.375 32.9375 
Q 64.9375 38.28125 72.703125 38.28125 
z
M 22.3125 68.015625 
Q 18.109375 68.015625 15.6875 64.375 
Q 13.28125 60.75 13.28125 54.390625 
Q 13.28125 47.953125 15.671875 44.328125 
Q 18.0625 40.71875 22.3125 40.71875 
Q 26.5625 40.71875 28.96875 44.328125 
Q 31.390625 47.953125 31.390625 54.390625 
Q 31.390625 60.6875 28.953125 64.34375 
Q 26.515625 68.015625 22.3125 68.015625 
z
M 66.40625 74.21875 
L 74.21875 74.21875 
L 28.609375 -1.421875 
L 20.796875 -1.421875 
z
M 22.3125 74.21875 
Q 30.03125 74.21875 34.609375 68.875 
Q 39.203125 63.53125 39.203125 54.390625 
Q 39.203125 45.171875 34.640625 39.84375 
Q 30.078125 34.515625 22.3125 34.515625 
Q 14.546875 34.515625 10.03125 39.859375 
Q 5.515625 45.21875 5.515625 54.390625 
Q 5.515625 63.484375 10.046875 68.84375 
Q 14.59375 74.21875 22.3125 74.21875 
z
" id="DejaVuSans-25"/>
     </defs>
     <g transform="translate(110.951406 285.289688)scale(0.1 -0.1)">
      <use xlink:href="#DejaVuSans-43"/>
      <use x="69.824219" xlink:href="#DejaVuSans-61"/>
      <use x="131.103516" xlink:href="#DejaVuSans-70"/>
      <use x="194.580078" xlink:href="#DejaVuSans-61"/>
      <use x="255.859375" xlink:href="#DejaVuSans-63"/>
      <use x="310.839844" xlink:href="#DejaVuSans-69"/>
      <use x="338.623047" xlink:href="#DejaVuSans-74"/>
      <use x="377.832031" xlink:href="#DejaVuSans-79"/>
      <use x="437.011719" xlink:href="#DejaVuSans-20"/>
      <use x="468.798828" xlink:href="#DejaVuSans-77"/>
      <use x="550.445312" xlink:href="#DejaVuSans-2e"/>
      <use x="582.232422" xlink:href="#DejaVuSans-72"/>
      <use x="623.205078" xlink:href="#DejaVuSans-2e"/>
      <use x="654.992188" xlink:href="#DejaVuSans-74"/>
      <use x="694.201172" xlink:href="#DejaVuSans-20"/>
      <use x="725.988281" xlink:href="#DejaVuSans-6e"/>
      <use x="789.367188" xlink:href="#DejaVuSans-6f"/>
      <use x="850.548828" xlink:href="#DejaVuSans-6d"/>
      <use x="947.960938" xlink:href="#DejaVuSans-69"/>
      <use x="975.744141" xlink:href="#DejaVuSans-6e"/>
      <use x="1039.123047" xlink:href="#DejaVuSans-61"/>
      <use x="1100.402344" xlink:href="#DejaVuSans-6c"/>
      <use x="1128.185547" xlink:href="#DejaVuSans-20"/>
      <use x="1159.972656" xlink:href="#DejaVuSans-28"/>
      <use x="1198.986328" xlink:href="#DejaVuSans-25"/>
      <use x="1294.005859" xlink:href="#DejaVuSans-29"/>
     </g>
    </g>
   </g>
   <g id="mpl_toolkits.axisartist.axis_artist_6">
    <g>
     <use style="fill:none;stroke:#000000;stroke-width:0.8;" x="308.817122" xlink:href="#md89f40a322" y="10.7"/>
    </g>
    <g>
     <use style="fill:none;stroke:#000000;stroke-width:0.8;" x="257.210186" xlink:href="#md89f40a322" y="10.7"/>
    </g>
    <g>
     <use style="fill:none;stroke:#000000;stroke-width:0.8;" x="205.60325" xlink:href="#md89f40a322" y="10.7"/>
    </g>
    <g>
     <use style="fill:none;stroke:#000000;stroke-width:0.8;" x="153.996315" xlink:href="#md89f40a322" y="10.7"/>
    </g>
    <g>
     <use style="fill:none;stroke:#000000;stroke-width:0.8;" x="102.389379" xlink:href="#md89f40a322" y="10.7"/>
    </g>
    <g>
     <use style="fill:none;stroke:#000000;stroke-width:0.8;" x="50.782443" xlink:href="#md89f40a322" y="10.7"/>
    </g>
    <g id="line2d_10">
     <path d="M 38.100625 10.7 
L 317.100625 10.7 
" style="fill:none;stroke:#000000;stroke-linecap:square;stroke-width:0.8;"/>
    </g>
   </g>
   <g id="mpl_toolkits.axisartist.axis_artist_7">
    <g>
     <use style="fill:none;stroke:#000000;stroke-width:0.8;" x="308.817122" xlink:href="#m1f01b9f636" y="298.14"/>
    </g>
    <g>
     <use style="fill:none;stroke:#000000;stroke-width:0.8;" x="257.210186" xlink:href="#m1f01b9f636" y="298.14"/>
    </g>
    <g>
     <use style="fill:none;stroke:#000000;stroke-width:0.8;" x="205.60325" xlink:href="#m1f01b9f636" y="298.14"/>
    </g>
    <g>
     <use style="fill:none;stroke:#000000;stroke-width:0.8;" x="153.996315" xlink:href="#m1f01b9f636" y="298.14"/>
    </g>
    <g>
     <use style="fill:none;stroke:#000000;stroke-width:0.8;" x="102.389379" xlink:href="#m1f01b9f636" y="298.14"/>
    </g>
    <g>
     <use style="fill:none;stroke:#000000;stroke-width:0.8;" x="50.782443" xlink:href="#m1f01b9f636" y="298.14"/>
    </g>
    <g id="text_23">
     <!-- 0.5 -->
     <g transform="translate(302.455872 307.5775)scale(0.08 -0.08)">
      <use xlink:href="#DejaVuSans-30"/>
      <use x="63.623047" xlink:href="#DejaVuSans-2e"/>
      <use x="95.410156" xlink:href="#DejaVuSans-35"/>
     </g>
    </g>
    <g id="text_24">
     <!-- 0.6 -->
     <g transform="translate(250.848936 307.5775)scale(0.08 -0.08)">
      <use xlink:href="#DejaVuSans-30"/>
      <use x="63.623047" xlink:href="#DejaVuSans-2e"/>
      <use x="95.410156" xlink:href="#DejaVuSans-36"/>
     </g>
    </g>
    <g id="text_25">
     <!-- 0.7 -->
     <defs>
      <path d="M 8.203125 72.90625 
L 55.078125 72.90625 
L 55.078125 68.703125 
L 28.609375 0 
L 18.3125 0 
L 43.21875 64.59375 
L 8.203125 64.59375 
z
" id="DejaVuSans-37"/>
     </defs>
     <g transform="translate(199.242 307.5775)scale(0.08 -0.08)">
      <use xlink:href="#DejaVuSans-30"/>
      <use x="63.623047" xlink:href="#DejaVuSans-2e"/>
      <use x="95.410156" xlink:href="#DejaVuSans-37"/>
     </g>
    </g>
    <g id="text_26">
     <!-- 0.8 -->
     <g transform="translate(147.635065 307.5775)scale(0.08 -0.08)">
      <use xlink:href="#DejaVuSans-30"/>
      <use x="63.623047" xlink:href="#DejaVuSans-2e"/>
      <use x="95.410156" xlink:href="#DejaVuSans-38"/>
     </g>
    </g>
    <g id="text_27">
     <!-- 0.9 -->
     <defs>
      <path d="M 10.984375 1.515625 
L 10.984375 10.5 
Q 14.703125 8.734375 18.5 7.8125 
Q 22.3125 6.890625 25.984375 6.890625 
Q 35.75 6.890625 40.890625 13.453125 
Q 46.046875 20.015625 46.78125 33.40625 
Q 43.953125 29.203125 39.59375 26.953125 
Q 35.25 24.703125 29.984375 24.703125 
Q 19.046875 24.703125 12.671875 31.3125 
Q 6.296875 37.9375 6.296875 49.421875 
Q 6.296875 60.640625 12.9375 67.421875 
Q 19.578125 74.21875 30.609375 74.21875 
Q 43.265625 74.21875 49.921875 64.515625 
Q 56.59375 54.828125 56.59375 36.375 
Q 56.59375 19.140625 48.40625 8.859375 
Q 40.234375 -1.421875 26.421875 -1.421875 
Q 22.703125 -1.421875 18.890625 -0.6875 
Q 15.09375 0.046875 10.984375 1.515625 
z
M 30.609375 32.421875 
Q 37.25 32.421875 41.125 36.953125 
Q 45.015625 41.5 45.015625 49.421875 
Q 45.015625 57.28125 41.125 61.84375 
Q 37.25 66.40625 30.609375 66.40625 
Q 23.96875 66.40625 20.09375 61.84375 
Q 16.21875 57.28125 16.21875 49.421875 
Q 16.21875 41.5 20.09375 36.953125 
Q 23.96875 32.421875 30.609375 32.421875 
z
" id="DejaVuSans-39"/>
     </defs>
     <g transform="translate(96.028129 307.5775)scale(0.08 -0.08)">
      <use xlink:href="#DejaVuSans-30"/>
      <use x="63.623047" xlink:href="#DejaVuSans-2e"/>
      <use x="95.410156" xlink:href="#DejaVuSans-39"/>
     </g>
    </g>
    <g id="text_28">
     <!-- 1.0 -->
     <g transform="translate(44.421193 307.5775)scale(0.08 -0.08)">
      <use xlink:href="#DejaVuSans-31"/>
      <use x="63.623047" xlink:href="#DejaVuSans-2e"/>
      <use x="95.410156" xlink:href="#DejaVuSans-30"/>
     </g>
    </g>
    <g id="line2d_11">
     <path d="M 38.100625 298.14 
L 317.100625 298.14 
" style="fill:none;stroke:#000000;stroke-linecap:square;stroke-width:0.8;"/>
    </g>
    <g id="text_29">
     <!-- $\delta$ in Li$_{\delta}$CoO$_2$ -->
     <defs>
      <path d="M 54.25 63.328125 
Q 49.953125 66.75 38.28125 66.75 
Q 25.921875 66.75 24.8125 61.03125 
Q 23.921875 56.546875 36.375 54.203125 
Q 46.140625 52.390625 50.828125 46.921875 
Q 56.5 40.328125 53.859375 26.8125 
Q 51.3125 13.875 43.171875 6.25 
Q 34.96875 -1.421875 23.25 -1.421875 
Q 11.578125 -1.421875 6.34375 6.25 
Q 1.125 13.875 3.765625 27.296875 
Q 5.671875 37.25 13.921875 45.3125 
Q 17.140625 48.4375 21.140625 50.203125 
Q 14.265625 54.046875 15.625 60.9375 
Q 18.21875 74.21875 39.75 74.21875 
Q 50.53125 74.21875 55.71875 70.796875 
z
M 27.390625 47.75 
Q 23.828125 46.34375 20.40625 42.78125 
Q 15.140625 37.25 13.234375 27.296875 
Q 11.28125 17.390625 14.359375 11.8125 
Q 17.484375 6.203125 24.75 6.203125 
Q 31.9375 6.203125 37.203125 11.859375 
Q 42.53125 17.53125 44.34375 26.8125 
Q 46.1875 36.53125 42.671875 41.21875 
Q 38.921875 46.234375 32.859375 46.78125 
Q 29.78125 47.078125 27.390625 47.75 
z
" id="DejaVuSans-Oblique-3b4"/>
      <path d="M 9.8125 72.90625 
L 19.671875 72.90625 
L 19.671875 8.296875 
L 55.171875 8.296875 
L 55.171875 0 
L 9.8125 0 
z
" id="DejaVuSans-4c"/>
      <path d="M 39.40625 66.21875 
Q 28.65625 66.21875 22.328125 58.203125 
Q 16.015625 50.203125 16.015625 36.375 
Q 16.015625 22.609375 22.328125 14.59375 
Q 28.65625 6.59375 39.40625 6.59375 
Q 50.140625 6.59375 56.421875 14.59375 
Q 62.703125 22.609375 62.703125 36.375 
Q 62.703125 50.203125 56.421875 58.203125 
Q 50.140625 66.21875 39.40625 66.21875 
z
M 39.40625 74.21875 
Q 54.734375 74.21875 63.90625 63.9375 
Q 73.09375 53.65625 73.09375 36.375 
Q 73.09375 19.140625 63.90625 8.859375 
Q 54.734375 -1.421875 39.40625 -1.421875 
Q 24.03125 -1.421875 14.8125 8.828125 
Q 5.609375 19.09375 5.609375 36.375 
Q 5.609375 53.65625 14.8125 63.9375 
Q 24.03125 74.21875 39.40625 74.21875 
z
" id="DejaVuSans-4f"/>
     </defs>
     <g transform="translate(147.400625 320.289688)scale(0.1 -0.1)">
      <use transform="translate(0 0.015625)" xlink:href="#DejaVuSans-Oblique-3b4"/>
      <use transform="translate(61.181641 0.015625)" xlink:href="#DejaVuSans-20"/>
      <use transform="translate(92.96875 0.015625)" xlink:href="#DejaVuSans-69"/>
      <use transform="translate(120.751953 0.015625)" xlink:href="#DejaVuSans-6e"/>
      <use transform="translate(184.130859 0.015625)" xlink:href="#DejaVuSans-20"/>
      <use transform="translate(215.917969 0.015625)" xlink:href="#DejaVuSans-4c"/>
      <use transform="translate(271.630859 0.015625)" xlink:href="#DejaVuSans-69"/>
      <use transform="translate(300.371094 -16.390625)scale(0.7)" xlink:href="#DejaVuSans-Oblique-3b4"/>
      <use transform="translate(345.932617 0.015625)" xlink:href="#DejaVuSans-43"/>
      <use transform="translate(415.756836 0.015625)" xlink:href="#DejaVuSans-6f"/>
      <use transform="translate(476.938477 0.015625)" xlink:href="#DejaVuSans-4f"/>
      <use transform="translate(556.606445 -16.390625)scale(0.7)" xlink:href="#DejaVuSans-32"/>
     </g>
    </g>
   </g>
   <g id="mpl_toolkits.axisartist.axis_artist_8">
    <g>
     <use style="fill:none;stroke:#000000;stroke-width:0.8;" x="317.100625" xlink:href="#m58d6bd7090" y="221.686215"/>
    </g>
    <g>
     <use style="fill:none;stroke:#000000;stroke-width:0.8;" x="317.100625" xlink:href="#m58d6bd7090" y="192.807245"/>
    </g>
    <g>
     <use style="fill:none;stroke:#000000;stroke-width:0.8;" x="317.100625" xlink:href="#m58d6bd7090" y="163.928275"/>
    </g>
    <g>
     <use style="fill:none;stroke:#000000;stroke-width:0.8;" x="317.100625" xlink:href="#m58d6bd7090" y="135.049305"/>
    </g>
    <g>
     <use style="fill:none;stroke:#000000;stroke-width:0.8;" x="317.100625" xlink:href="#m58d6bd7090" y="106.170335"/>
    </g>
    <g>
     <use style="fill:none;stroke:#000000;stroke-width:0.8;" x="317.100625" xlink:href="#m58d6bd7090" y="77.291364"/>
    </g>
    <g>
     <use style="fill:none;stroke:#000000;stroke-width:0.8;" x="317.100625" xlink:href="#m58d6bd7090" y="48.412394"/>
    </g>
    <g>
     <use style="fill:none;stroke:#000000;stroke-width:0.8;" x="317.100625" xlink:href="#m58d6bd7090" y="19.533424"/>
    </g>
    <g id="line2d_12">
     <path d="M 317.100625 228.14 
L 317.100625 10.7 
" style="fill:none;stroke:#000000;stroke-linecap:square;stroke-width:0.8;"/>
    </g>
   </g>
   <g id="mpl_toolkits.axisartist.axis_artist_9">
    <g>
     <use style="fill:none;stroke:#000000;stroke-width:0.8;" x="50.782443" xlink:href="#md89f40a322" y="10.7"/>
    </g>
    <g>
     <use style="fill:none;stroke:#000000;stroke-width:0.8;" x="109.426688" xlink:href="#md89f40a322" y="10.7"/>
    </g>
    <g>
     <use style="fill:none;stroke:#000000;stroke-width:0.8;" x="168.070934" xlink:href="#md89f40a322" y="10.7"/>
    </g>
    <g>
     <use style="fill:none;stroke:#000000;stroke-width:0.8;" x="226.715179" xlink:href="#md89f40a322" y="10.7"/>
    </g>
    <g>
     <use style="fill:none;stroke:#000000;stroke-width:0.8;" x="285.359424" xlink:href="#md89f40a322" y="10.7"/>
    </g>
    <g id="line2d_13">
     <path d="M 38.100625 10.7 
L 317.100625 10.7 
" style="fill:none;stroke:#000000;stroke-linecap:square;stroke-width:0.8;"/>
    </g>
   </g>
   <g id="mpl_toolkits.axisartist.axis_artist_10">
    <g>
     <use style="fill:none;stroke:#000000;stroke-width:0.8;" x="38.100625" xlink:href="#m5022fb396f" y="221.686215"/>
    </g>
    <g>
     <use style="fill:none;stroke:#000000;stroke-width:0.8;" x="38.100625" xlink:href="#m5022fb396f" y="192.807245"/>
    </g>
    <g>
     <use style="fill:none;stroke:#000000;stroke-width:0.8;" x="38.100625" xlink:href="#m5022fb396f" y="163.928275"/>
    </g>
    <g>
     <use style="fill:none;stroke:#000000;stroke-width:0.8;" x="38.100625" xlink:href="#m5022fb396f" y="135.049305"/>
    </g>
    <g>
     <use style="fill:none;stroke:#000000;stroke-width:0.8;" x="38.100625" xlink:href="#m5022fb396f" y="106.170335"/>
    </g>
    <g>
     <use style="fill:none;stroke:#000000;stroke-width:0.8;" x="38.100625" xlink:href="#m5022fb396f" y="77.291364"/>
    </g>
    <g>
     <use style="fill:none;stroke:#000000;stroke-width:0.8;" x="38.100625" xlink:href="#m5022fb396f" y="48.412394"/>
    </g>
    <g>
     <use style="fill:none;stroke:#000000;stroke-width:0.8;" x="38.100625" xlink:href="#m5022fb396f" y="19.533424"/>
    </g>
    <g id="text_30">
     <!-- 2.8 -->
     <g transform="translate(21.878125 223.893715)scale(0.08 -0.08)">
      <use xlink:href="#DejaVuSans-32"/>
      <use x="63.623047" xlink:href="#DejaVuSans-2e"/>
      <use x="95.410156" xlink:href="#DejaVuSans-38"/>
     </g>
    </g>
    <g id="text_31">
     <!-- 3.0 -->
     <g transform="translate(21.878125 195.014745)scale(0.08 -0.08)">
      <use xlink:href="#DejaVuSans-33"/>
      <use x="63.623047" xlink:href="#DejaVuSans-2e"/>
      <use x="95.410156" xlink:href="#DejaVuSans-30"/>
     </g>
    </g>
    <g id="text_32">
     <!-- 3.2 -->
     <g transform="translate(21.878125 166.135775)scale(0.08 -0.08)">
      <use xlink:href="#DejaVuSans-33"/>
      <use x="63.623047" xlink:href="#DejaVuSans-2e"/>
      <use x="95.410156" xlink:href="#DejaVuSans-32"/>
     </g>
    </g>
    <g id="text_33">
     <!-- 3.4 -->
     <g transform="translate(21.878125 137.256805)scale(0.08 -0.08)">
      <use xlink:href="#DejaVuSans-33"/>
      <use x="63.623047" xlink:href="#DejaVuSans-2e"/>
      <use x="95.410156" xlink:href="#DejaVuSans-34"/>
     </g>
    </g>
    <g id="text_34">
     <!-- 3.6 -->
     <g transform="translate(21.878125 108.377835)scale(0.08 -0.08)">
      <use xlink:href="#DejaVuSans-33"/>
      <use x="63.623047" xlink:href="#DejaVuSans-2e"/>
      <use x="95.410156" xlink:href="#DejaVuSans-36"/>
     </g>
    </g>
    <g id="text_35">
     <!-- 3.8 -->
     <g transform="translate(21.878125 79.498864)scale(0.08 -0.08)">
      <use xlink:href="#DejaVuSans-33"/>
      <use x="63.623047" xlink:href="#DejaVuSans-2e"/>
      <use x="95.410156" xlink:href="#DejaVuSans-38"/>
     </g>
    </g>
    <g id="text_36">
     <!-- 4.0 -->
     <g transform="translate(21.878125 50.619894)scale(0.08 -0.08)">
      <use xlink:href="#DejaVuSans-34"/>
      <use x="63.623047" xlink:href="#DejaVuSans-2e"/>
      <use x="95.410156" xlink:href="#DejaVuSans-30"/>
     </g>
    </g>
    <g id="text_37">
     <!-- 4.2 -->
     <g transform="translate(21.878125 21.740924)scale(0.08 -0.08)">
      <use xlink:href="#DejaVuSans-34"/>
      <use x="63.623047" xlink:href="#DejaVuSans-2e"/>
      <use x="95.410156" xlink:href="#DejaVuSans-32"/>
     </g>
    </g>
    <g id="line2d_14">
     <path d="M 38.100625 228.14 
L 38.100625 10.7 
" style="fill:none;stroke:#000000;stroke-linecap:square;stroke-width:0.8;"/>
    </g>
    <g id="text_38">
     <!-- Potential (V) -->
     <g transform="translate(14.798438 150.410625)rotate(-90)scale(0.1 -0.1)">
      <use xlink:href="#DejaVuSans-50"/>
      <use x="60.255859" xlink:href="#DejaVuSans-6f"/>
      <use x="121.4375" xlink:href="#DejaVuSans-74"/>
      <use x="160.646484" xlink:href="#DejaVuSans-65"/>
      <use x="222.169922" xlink:href="#DejaVuSans-6e"/>
      <use x="285.548828" xlink:href="#DejaVuSans-74"/>
      <use x="324.757812" xlink:href="#DejaVuSans-69"/>
      <use x="352.541016" xlink:href="#DejaVuSans-61"/>
      <use x="413.820312" xlink:href="#DejaVuSans-6c"/>
      <use x="441.603516" xlink:href="#DejaVuSans-20"/>
      <use x="473.390625" xlink:href="#DejaVuSans-28"/>
      <use x="512.404297" xlink:href="#DejaVuSans-56"/>
      <use x="580.8125" xlink:href="#DejaVuSans-29"/>
     </g>
    </g>
   </g>
   <g id="mpl_toolkits.axisartist.axis_artist_11">
    <g>
     <use style="fill:none;stroke:#000000;stroke-width:0.8;" x="50.782443" xlink:href="#m1f01b9f636" y="228.14"/>
    </g>
    <g>
     <use style="fill:none;stroke:#000000;stroke-width:0.8;" x="109.426688" xlink:href="#m1f01b9f636" y="228.14"/>
    </g>
    <g>
     <use style="fill:none;stroke:#000000;stroke-width:0.8;" x="168.070934" xlink:href="#m1f01b9f636" y="228.14"/>
    </g>
    <g>
     <use style="fill:none;stroke:#000000;stroke-width:0.8;" x="226.715179" xlink:href="#m1f01b9f636" y="228.14"/>
    </g>
    <g>
     <use style="fill:none;stroke:#000000;stroke-width:0.8;" x="285.359424" xlink:href="#m1f01b9f636" y="228.14"/>
    </g>
    <g id="text_39">
     <!-- 0.0 -->
     <g transform="translate(44.421193 237.5775)scale(0.08 -0.08)">
      <use xlink:href="#DejaVuSans-30"/>
      <use x="63.623047" xlink:href="#DejaVuSans-2e"/>
      <use x="95.410156" xlink:href="#DejaVuSans-30"/>
     </g>
    </g>
    <g id="text_40">
     <!-- 0.5 -->
     <g transform="translate(103.065438 237.5775)scale(0.08 -0.08)">
      <use xlink:href="#DejaVuSans-30"/>
      <use x="63.623047" xlink:href="#DejaVuSans-2e"/>
      <use x="95.410156" xlink:href="#DejaVuSans-35"/>
     </g>
    </g>
    <g id="text_41">
     <!-- 1.0 -->
     <g transform="translate(161.709684 237.5775)scale(0.08 -0.08)">
      <use xlink:href="#DejaVuSans-31"/>
      <use x="63.623047" xlink:href="#DejaVuSans-2e"/>
      <use x="95.410156" xlink:href="#DejaVuSans-30"/>
     </g>
    </g>
    <g id="text_42">
     <!-- 1.5 -->
     <g transform="translate(220.353929 237.5775)scale(0.08 -0.08)">
      <use xlink:href="#DejaVuSans-31"/>
      <use x="63.623047" xlink:href="#DejaVuSans-2e"/>
      <use x="95.410156" xlink:href="#DejaVuSans-35"/>
     </g>
    </g>
    <g id="text_43">
     <!-- 2.0 -->
     <g transform="translate(278.998174 237.5775)scale(0.08 -0.08)">
      <use xlink:href="#DejaVuSans-32"/>
      <use x="63.623047" xlink:href="#DejaVuSans-2e"/>
      <use x="95.410156" xlink:href="#DejaVuSans-30"/>
     </g>
    </g>
    <g id="line2d_15">
     <path d="M 38.100625 228.14 
L 317.100625 228.14 
" style="fill:none;stroke:#000000;stroke-linecap:square;stroke-width:0.8;"/>
    </g>
    <g id="text_44">
     <!-- Capacity (Ah) -->
     <g transform="translate(143.669375 250.289687)scale(0.1 -0.1)">
      <use xlink:href="#DejaVuSans-43"/>
      <use x="69.824219" xlink:href="#DejaVuSans-61"/>
      <use x="131.103516" xlink:href="#DejaVuSans-70"/>
      <use x="194.580078" xlink:href="#DejaVuSans-61"/>
      <use x="255.859375" xlink:href="#DejaVuSans-63"/>
      <use x="310.839844" xlink:href="#DejaVuSans-69"/>
      <use x="338.623047" xlink:href="#DejaVuSans-74"/>
      <use x="377.832031" xlink:href="#DejaVuSans-79"/>
      <use x="437.011719" xlink:href="#DejaVuSans-20"/>
      <use x="468.798828" xlink:href="#DejaVuSans-28"/>
      <use x="507.8125" xlink:href="#DejaVuSans-41"/>
      <use x="576.220703" xlink:href="#DejaVuSans-68"/>
      <use x="639.599609" xlink:href="#DejaVuSans-29"/>
     </g>
    </g>
   </g>
   <g id="legend_1">
    <g id="patch_3">
     <path d="M 267.591875 224.14 
L 311.500625 224.14 
Q 313.100625 224.14 313.100625 222.54 
L 313.100625 176.37 
Q 313.100625 174.77 311.500625 174.77 
L 267.591875 174.77 
Q 265.991875 174.77 265.991875 176.37 
L 265.991875 222.54 
Q 265.991875 224.14 267.591875 224.14 
z
" style="fill:#ffffff;opacity:0.9;stroke:#cccccc;stroke-linejoin:miter;"/>
    </g>
    <g id="line2d_16">
     <path d="M 269.191875 181.24875 
L 285.191875 181.24875 
" style="fill:none;stroke:#1f77b4;stroke-linecap:square;stroke-width:1.5;"/>
    </g>
    <g id="line2d_17">
     <g>
      <use style="fill:#1f77b4;stroke:#1f77b4;" x="277.191875" xlink:href="#m0808a23e62" y="181.24875"/>
     </g>
    </g>
    <g id="text_45">
     <!-- 0.1C -->
     <g transform="translate(291.591875 184.04875)scale(0.08 -0.08)">
      <use xlink:href="#DejaVuSans-30"/>
      <use x="63.623047" xlink:href="#DejaVuSans-2e"/>
      <use x="95.410156" xlink:href="#DejaVuSans-31"/>
      <use x="159.033203" xlink:href="#DejaVuSans-43"/>
     </g>
    </g>
    <g id="line2d_18">
     <path d="M 269.191875 192.99125 
L 285.191875 192.99125 
" style="fill:none;stroke:#ff7f0e;stroke-linecap:square;stroke-width:1.5;"/>
    </g>
    <g id="line2d_19">
     <g>
      <use style="fill:#ff7f0e;stroke:#ff7f0e;" x="277.191875" xlink:href="#m9b3b9ddaf7" y="192.99125"/>
     </g>
    </g>
    <g id="text_46">
     <!-- 0.2C -->
     <g transform="translate(291.591875 195.79125)scale(0.08 -0.08)">
      <use xlink:href="#DejaVuSans-30"/>
      <use x="63.623047" xlink:href="#DejaVuSans-2e"/>
      <use x="95.410156" xlink:href="#DejaVuSans-32"/>
      <use x="159.033203" xlink:href="#DejaVuSans-43"/>
     </g>
    </g>
    <g id="line2d_20">
     <path d="M 269.191875 204.73375 
L 285.191875 204.73375 
" style="fill:none;stroke:#2ca02c;stroke-linecap:square;stroke-width:1.5;"/>
    </g>
    <g id="line2d_21">
     <g>
      <use style="fill:#2ca02c;stroke:#2ca02c;" x="277.191875" xlink:href="#m551ed902fe" y="204.73375"/>
     </g>
    </g>
    <g id="text_47">
     <!-- 0.5C -->
     <g transform="translate(291.591875 207.53375)scale(0.08 -0.08)">
      <use xlink:href="#DejaVuSans-30"/>
      <use x="63.623047" xlink:href="#DejaVuSans-2e"/>
      <use x="95.410156" xlink:href="#DejaVuSans-35"/>
      <use x="159.033203" xlink:href="#DejaVuSans-43"/>
     </g>
    </g>
    <g id="line2d_22">
     <path d="M 269.191875 216.47625 
L 285.191875 216.47625 
" style="fill:none;stroke:#d62728;stroke-linecap:square;stroke-width:1.5;"/>
    </g>
    <g id="line2d_23">
     <g>
      <use style="fill:#d62728;stroke:#d62728;" x="277.191875" xlink:href="#m29ae122e8a" y="216.47625"/>
     </g>
    </g>
    <g id="text_48">
     <!-- 1.0C -->
     <g transform="translate(291.591875 219.27625)scale(0.08 -0.08)">
      <use xlink:href="#DejaVuSans-31"/>
      <use x="63.623047" xlink:href="#DejaVuSans-2e"/>
      <use x="95.410156" xlink:href="#DejaVuSans-30"/>
      <use x="159.033203" xlink:href="#DejaVuSans-43"/>
     </g>
    </g>
   </g>
  </g>
 </g>
 <defs>
  <clipPath id="pa35c6d9d9d">
   <rect height="217.44" width="279" x="38.100625" y="10.7"/>
  </clipPath>
 </defs>
</svg>
